<?xml version="1.0" encoding="UTF-8"?>
<!DOCTYPE svg PUBLIC "-//W3C//DTD SVG 1.1//EN" "http://www.w3.org/Graphics/SVG/1.1/DTD/svg11.dtd">
<svg xmlns="http://www.w3.org/2000/svg" version="1.1" width="499px" height="421px" style="shape-rendering:geometricPrecision; text-rendering:geometricPrecision; image-rendering:optimizeQuality; fill-rule:evenodd; clip-rule:evenodd" xmlns:xlink="http://www.w3.org/1999/xlink">
<g><path style="opacity:1" fill="#0a0a0a" d="M 285.5,18.5 C 290.875,18.1718 296.208,18.5052 301.5,19.5C 302.988,21.5772 304.988,22.5772 307.5,22.5C 309.756,30.6009 312.423,38.6009 315.5,46.5C 315.081,47.6721 314.415,48.6721 313.5,49.5C 307.579,52.0294 301.579,54.3628 295.5,56.5C 285.196,47.197 275.196,37.5303 265.5,27.5C 272.286,24.2599 278.953,21.2599 285.5,18.5 Z"/></g>
<g><path style="opacity:1" fill="#090909" d="M 213.5,44.5 C 216.898,44.1796 220.232,44.513 223.5,45.5C 231.233,53.9031 239.566,61.5698 248.5,68.5C 249.466,70.396 249.799,72.396 249.5,74.5C 239.873,76.4864 230.54,79.4864 221.5,83.5C 218.833,84.8333 216.167,84.8333 213.5,83.5C 204.768,74.0986 195.435,65.4319 185.5,57.5C 187.156,55.6706 189.156,54.3372 191.5,53.5C 197.5,51.5 203.5,49.5 209.5,47.5C 211.332,46.9432 212.665,45.9432 213.5,44.5 Z"/></g>
<g><path style="opacity:1" fill="#080808" d="M 137.5,72.5 C 139.604,72.2011 141.604,72.5344 143.5,73.5C 151.5,81.5 159.5,89.5 167.5,97.5C 168.689,98.4287 170.022,98.762 171.5,98.5C 171.5,99.8333 171.5,101.167 171.5,102.5C 160.679,105.552 150.013,109.219 139.5,113.5C 136.833,114.833 134.167,114.833 131.5,113.5C 123.167,105.167 114.833,96.8333 106.5,88.5C 105.571,87.3112 105.238,85.9778 105.5,84.5C 116.74,81.5264 127.406,77.5264 137.5,72.5 Z"/></g>
<g><path style="opacity:1" fill="#010101" d="M 399.5,106.5 C 399.5,110.5 399.5,114.5 399.5,118.5C 399.201,120.604 399.534,122.604 400.5,124.5C 406.427,120.048 412.761,119.382 419.5,122.5C 419.579,124.666 420.246,126.666 421.5,128.5C 419.227,134.44 415.227,138.773 409.5,141.5C 408.167,143.5 406.833,145.5 405.5,147.5C 406.167,147.833 406.833,148.167 407.5,148.5C 410.328,146.252 413.328,144.252 416.5,142.5C 417.934,143.588 418.934,144.922 419.5,146.5C 418.964,149.698 419.631,152.365 421.5,154.5C 418.405,163.679 413.072,171.346 405.5,177.5C 410.833,181.5 416.167,185.5 421.5,189.5C 431.057,200.28 437.723,212.614 441.5,226.5C 440.252,227.334 439.585,228.667 439.5,230.5C 439.585,232.333 440.252,233.666 441.5,234.5C 443.176,235.183 443.843,236.517 443.5,238.5C 442.184,241.087 441.517,244.087 441.5,247.5C 441.517,250.913 442.184,253.913 443.5,256.5C 442.833,257.833 442.167,259.167 441.5,260.5C 440.252,261.334 439.585,262.667 439.5,264.5C 439.585,266.333 440.252,267.666 441.5,268.5C 433.144,302.525 412.477,325.525 379.5,337.5C 376.914,338.48 374.247,338.813 371.5,338.5C 364.344,338.598 357.677,339.931 351.5,342.5C 350.817,344.176 349.483,344.843 347.5,344.5C 343.285,342.564 338.619,341.897 333.5,342.5C 333.157,344.483 333.824,345.817 335.5,346.5C 335.843,348.483 335.176,349.817 333.5,350.5C 332.223,351.694 331.556,353.36 331.5,355.5C 331.556,357.64 332.223,359.306 333.5,360.5C 330.66,367.933 325.327,372.6 317.5,374.5C 231.446,373.151 145.113,371.818 58.5,370.5C 56.9704,370.64 55.9704,371.307 55.5,372.5C 47.0778,367.411 41.7445,360.078 39.5,350.5C 41.4949,305.512 42.1616,260.179 41.5,214.5C 41.2859,209.694 43.2859,206.027 47.5,203.5C 49.396,202.534 51.396,202.201 53.5,202.5C 143.173,203.164 232.506,202.497 321.5,200.5C 328.364,202.699 332.364,207.365 333.5,214.5C 333.5,247.167 333.5,279.833 333.5,312.5C 336.698,313.036 339.365,312.369 341.5,310.5C 342.833,309.833 344.167,309.167 345.5,308.5C 347.048,309.794 349.048,310.461 351.5,310.5C 356.097,310.302 360.097,308.968 363.5,306.5C 369.449,304.198 375.449,301.865 381.5,299.5C 384.983,296.261 388.65,293.261 392.5,290.5C 393.73,287.268 395.73,284.601 398.5,282.5C 407.683,266.075 410.35,248.742 406.5,230.5C 401.617,218.285 393.284,209.285 381.5,203.5C 376.167,202.833 370.833,202.167 365.5,201.5C 347.99,191.48 340.323,176.48 342.5,156.5C 343.119,153.968 344.119,151.635 345.5,149.5C 349.723,147.811 353.723,146.144 357.5,144.5C 358.824,140.893 359.491,136.893 359.5,132.5C 359.491,128.107 358.824,124.107 357.5,120.5C 358.68,117.968 359.68,115.301 360.5,112.5C 361.265,111.388 362.265,110.721 363.5,110.5C 367.281,110.093 370.281,111.426 372.5,114.5C 372.92,117.616 373.92,120.283 375.5,122.5C 377.029,118.021 378.695,113.354 380.5,108.5C 385.447,101.501 391.78,99.5013 399.5,102.5C 399.5,103.833 399.5,105.167 399.5,106.5 Z M 373.5,124.5 C 375.402,127.337 376.069,130.671 375.5,134.5C 374.833,134.5 374.167,134.5 373.5,134.5C 373.5,131.167 373.5,127.833 373.5,124.5 Z M 395.5,126.5 C 396.167,126.5 396.833,126.5 397.5,126.5C 398.376,126.369 399.043,126.702 399.5,127.5C 397.753,129.59 395.753,131.257 393.5,132.5C 393.5,131.833 393.5,131.167 393.5,130.5C 393.5,129.833 393.5,129.167 393.5,128.5C 394.833,128.5 395.5,127.833 395.5,126.5 Z M 391.5,132.5 C 392.167,132.5 392.833,132.5 393.5,132.5C 393.5,133.167 393.5,133.833 393.5,134.5C 392.833,134.5 392.167,134.5 391.5,134.5C 391.5,133.833 391.5,133.167 391.5,132.5 Z M 359.5,148.5 C 359.5,149.833 358.833,150.5 357.5,150.5C 357.5,149.167 358.167,148.5 359.5,148.5 Z M 403.5,150.5 C 402.833,150.5 402.167,150.5 401.5,150.5C 402.167,147.833 402.833,147.833 403.5,150.5 Z M 231.5,272.5 C 231.5,275.833 231.5,279.167 231.5,282.5C 231.5,283.833 232.167,284.5 233.5,284.5C 233.843,286.483 233.176,287.817 231.5,288.5C 228.462,286.68 225.129,285.014 221.5,283.5C 215.97,277.567 216.636,272.234 223.5,267.5C 227.241,264.768 231.241,262.434 235.5,260.5C 236.167,260.833 236.833,261.167 237.5,261.5C 234.558,264.667 232.558,268.333 231.5,272.5 Z M 263.5,262.5 C 264.833,262.5 265.5,263.167 265.5,264.5C 265.5,263.167 264.833,262.5 263.5,262.5 Z M 265.5,264.5 C 273.188,266.838 279.188,271.505 283.5,278.5C 283.081,279.672 282.415,280.672 281.5,281.5C 274.36,285.099 267.027,288.099 259.5,290.5C 260.954,285.592 262.954,280.926 265.5,276.5C 265.5,272.5 265.5,268.5 265.5,264.5 Z M 149.5,296.5 C 148.833,296.5 148.167,296.5 147.5,296.5C 148.833,293.833 150.167,291.167 151.5,288.5C 151.5,284.5 151.5,280.5 151.5,276.5C 150.265,273.042 148.265,270.042 145.5,267.5C 151.713,267.939 157.047,270.606 161.5,275.5C 162.689,276.429 164.022,276.762 165.5,276.5C 165.855,278.89 166.522,281.223 167.5,283.5C 166.522,285.777 165.855,288.11 165.5,290.5C 159.847,291.717 154.513,293.717 149.5,296.5 Z M 115.5,274.5 C 117.438,278.826 119.105,283.493 120.5,288.5C 121.43,291.362 123.097,293.695 125.5,295.5C 124.5,295.833 123.5,296.167 122.5,296.5C 118.899,294.861 115.233,293.528 111.5,292.5C 111.421,290.334 110.754,288.334 109.5,286.5C 112.577,283.013 114.577,279.013 115.5,274.5 Z"/></g>
<g><path style="opacity:1" fill="#040404" d="M 73.5,184.5 C 69.5549,183.175 65.2216,182.508 60.5,182.5C 55.7784,182.508 51.4451,183.175 47.5,184.5C 41.5,182.5 37.5,178.5 35.5,172.5C 36.8255,168.555 37.4921,164.222 37.5,159.5C 37.4921,154.778 36.8255,150.445 35.5,146.5C 31.1808,139.635 28.5141,131.968 27.5,123.5C 27.7297,119.71 29.063,116.376 31.5,113.5C 40.0181,108.66 49.0181,104.994 58.5,102.5C 64.737,106.73 70.4036,111.73 75.5,117.5C 76.6888,118.429 78.0222,118.762 79.5,118.5C 79.5,119.833 79.5,121.167 79.5,122.5C 91.8353,127.847 96.1687,137.181 92.5,150.5C 86.1397,161.894 79.8063,173.227 73.5,184.5 Z"/></g>
<g><path style="opacity:1" fill="#2c2c2c" d="M 399.5,106.5 C 400.794,108.048 401.461,110.048 401.5,112.5C 401.461,114.952 400.794,116.952 399.5,118.5C 399.5,114.5 399.5,110.5 399.5,106.5 Z"/></g>
<g><path style="opacity:1" fill="#1f1f1f" d="M 375.5,122.5 C 373.92,120.283 372.92,117.616 372.5,114.5C 370.281,111.426 367.281,110.093 363.5,110.5C 364.334,109.252 365.667,108.585 367.5,108.5C 370.559,108.558 372.892,109.891 374.5,112.5C 375.487,115.768 375.82,119.102 375.5,122.5 Z"/></g>
<g><path style="opacity:1" fill="#5b5c5b" d="M 397.5,126.5 C 396.833,126.5 396.167,126.5 395.5,126.5C 396.167,123.833 396.833,123.833 397.5,126.5 Z"/></g>
<g><path style="opacity:1" fill="#505150" d="M 395.5,126.5 C 395.5,127.833 394.833,128.5 393.5,128.5C 393.5,127.167 394.167,126.5 395.5,126.5 Z"/></g>
<g><path style="opacity:1" fill="#363636" d="M 373.5,124.5 C 373.5,127.833 373.5,131.167 373.5,134.5C 373.5,136.5 373.5,138.5 373.5,140.5C 372.188,138.257 371.522,135.59 371.5,132.5C 371.522,129.41 372.188,126.743 373.5,124.5 Z"/></g>
<g><path style="opacity:1" fill="#6d6e6d" d="M 393.5,130.5 C 393.5,131.167 393.5,131.833 393.5,132.5C 392.833,132.5 392.167,132.5 391.5,132.5C 391.5,131.167 392.167,130.5 393.5,130.5 Z"/></g>
<g><path style="opacity:1" fill="#292929" d="M 357.5,120.5 C 358.824,124.107 359.491,128.107 359.5,132.5C 359.491,136.893 358.824,140.893 357.5,144.5C 357.5,136.5 357.5,128.5 357.5,120.5 Z"/></g>
<g><path style="opacity:1" fill="#777777" d="M 373.5,134.5 C 374.167,134.5 374.833,134.5 375.5,134.5C 375.975,137.082 375.308,139.082 373.5,140.5C 373.5,138.5 373.5,136.5 373.5,134.5 Z"/></g>
<g><path style="opacity:1" fill="#7e7e7e" d="M 391.5,134.5 C 392.167,134.5 392.833,134.5 393.5,134.5C 392.934,136.078 391.934,137.412 390.5,138.5C 390.167,137.833 389.833,137.167 389.5,136.5C 389.747,135.287 390.414,134.62 391.5,134.5 Z"/></g>
<g><path style="opacity:1" fill="#2d2d2d" d="M 35.5,146.5 C 36.8255,150.445 37.4921,154.778 37.5,159.5C 37.4921,164.222 36.8255,168.555 35.5,172.5C 35.5,163.833 35.5,155.167 35.5,146.5 Z"/></g>
<g><path style="opacity:1" fill="#2d2d2d" d="M 177.5,152.5 C 165.211,150.52 152.544,149.853 139.5,150.5C 152.458,148.519 165.791,147.852 179.5,148.5C 179.843,150.483 179.176,151.817 177.5,152.5 Z"/></g>
<g><path style="opacity:1" fill="#2d2d2d" d="M 263.5,152.5 C 251.681,150.589 239.681,149.923 227.5,150.5C 239.12,148.521 251.12,147.854 263.5,148.5C 263.5,149.833 263.5,151.167 263.5,152.5 Z"/></g>
<g><path style="opacity:1" fill="#050505" d="M 139.5,150.5 C 152.544,149.853 165.211,150.52 177.5,152.5C 173.182,163.802 167.849,174.469 161.5,184.5C 149.211,182.52 136.544,181.853 123.5,182.5C 127.818,171.198 133.151,160.531 139.5,150.5 Z"/></g>
<g><path style="opacity:1" fill="#050505" d="M 227.5,150.5 C 239.681,149.923 251.681,150.589 263.5,152.5C 257.469,163.237 251.469,173.904 245.5,184.5C 233.88,182.521 221.88,181.854 209.5,182.5C 215.531,171.763 221.531,161.096 227.5,150.5 Z"/></g>
<g><path style="opacity:1" fill="#050505" d="M 311.5,150.5 C 318.167,150.5 324.833,150.5 331.5,150.5C 330.87,158.243 331.537,165.576 333.5,172.5C 330.061,177.939 325.395,181.939 319.5,184.5C 311.903,182.533 303.903,181.866 295.5,182.5C 299.818,171.198 305.151,160.531 311.5,150.5 Z"/></g>
<g><path style="opacity:1" fill="#595959" d="M 359.5,148.5 C 360.693,148.97 361.36,149.97 361.5,151.5C 361.167,152.5 360.833,153.5 360.5,154.5C 359.066,153.412 358.066,152.078 357.5,150.5C 358.833,150.5 359.5,149.833 359.5,148.5 Z"/></g>
<g><path style="opacity:1" fill="#696969" d="M 401.5,150.5 C 402.167,150.5 402.833,150.5 403.5,150.5C 406.083,151.092 406.083,151.758 403.5,152.5C 402.287,152.253 401.62,151.586 401.5,150.5 Z"/></g>
<g><path style="opacity:1" fill="#2c2c2c" d="M 419.5,146.5 C 421.369,148.635 422.036,151.302 421.5,154.5C 419.631,152.365 418.964,149.698 419.5,146.5 Z"/></g>
<g><path style="opacity:1" fill="#252525" d="M 333.5,172.5 C 331.537,165.576 330.87,158.243 331.5,150.5C 324.833,150.5 318.167,150.5 311.5,150.5C 318.424,148.537 325.757,147.87 333.5,148.5C 333.5,156.5 333.5,164.5 333.5,172.5 Z"/></g>
<g><path style="opacity:1" fill="#2e2e2e" d="M 73.5,184.5 C 64.8333,184.5 56.1667,184.5 47.5,184.5C 51.4451,183.175 55.7784,182.508 60.5,182.5C 65.2216,182.508 69.5549,183.175 73.5,184.5 Z"/></g>
<g><path style="opacity:1" fill="#2e2e2e" d="M 123.5,182.5 C 136.544,181.853 149.211,182.52 161.5,184.5C 148.15,184.833 134.817,184.499 121.5,183.5C 121.957,182.702 122.624,182.369 123.5,182.5 Z"/></g>
<g><path style="opacity:1" fill="#2f2f2f" d="M 209.5,182.5 C 221.88,181.854 233.88,182.521 245.5,184.5C 233.12,185.146 221.12,184.479 209.5,182.5 Z"/></g>
<g><path style="opacity:1" fill="#2e2e2e" d="M 295.5,182.5 C 303.903,181.866 311.903,182.533 319.5,184.5C 310.808,184.831 302.141,184.498 293.5,183.5C 293.957,182.702 294.624,182.369 295.5,182.5 Z"/></g>
<g><path style="opacity:1" fill="#2f2f2f" d="M 321.5,200.5 C 232.506,202.497 143.173,203.164 53.5,202.5C 142.494,200.503 231.827,199.836 321.5,200.5 Z"/></g>
<g><path style="opacity:1" fill="#1f1f1f" d="M 333.5,214.5 C 335.493,246.149 336.159,278.149 335.5,310.5C 337.5,310.5 339.5,310.5 341.5,310.5C 339.365,312.369 336.698,313.036 333.5,312.5C 333.5,279.833 333.5,247.167 333.5,214.5 Z"/></g>
<g><path style="opacity:1" fill="#2d2d2d" d="M 41.5,214.5 C 42.1616,260.179 41.4949,305.512 39.5,350.5C 38.8384,304.821 39.5051,259.488 41.5,214.5 Z"/></g>
<g><path style="opacity:1" fill="#2a2a2a" d="M 441.5,226.5 C 441.5,229.167 441.5,231.833 441.5,234.5C 440.252,233.666 439.585,232.333 439.5,230.5C 439.585,228.667 440.252,227.334 441.5,226.5 Z"/></g>
<g><path style="opacity:1" fill="#282828" d="M 443.5,238.5 C 443.5,244.5 443.5,250.5 443.5,256.5C 442.184,253.913 441.517,250.913 441.5,247.5C 441.517,244.087 442.184,241.087 443.5,238.5 Z"/></g>
<g><path style="opacity:1" fill="#282828" d="M 441.5,260.5 C 441.5,263.167 441.5,265.833 441.5,268.5C 440.252,267.666 439.585,266.333 439.5,264.5C 439.585,262.667 440.252,261.334 441.5,260.5 Z"/></g>
<g><path style="opacity:1" fill="#252525" d="M 263.5,262.5 C 263.5,263.833 264.167,264.5 265.5,264.5C 265.5,268.5 265.5,272.5 265.5,276.5C 263.934,272.814 262.601,268.814 261.5,264.5C 261.747,263.287 262.414,262.62 263.5,262.5 Z"/></g>
<g><path style="opacity:1" fill="#2d2d2d" d="M 231.5,272.5 C 232.777,273.694 233.444,275.36 233.5,277.5C 233.444,279.64 232.777,281.306 231.5,282.5C 231.5,279.167 231.5,275.833 231.5,272.5 Z"/></g>
<g><path style="opacity:1" fill="#2d2d2d" d="M 151.5,276.5 C 151.5,280.5 151.5,284.5 151.5,288.5C 150.206,286.952 149.539,284.952 149.5,282.5C 149.539,280.048 150.206,278.048 151.5,276.5 Z"/></g>
<g><path style="opacity:1" fill="#282828" d="M 233.5,284.5 C 235.035,285.844 236.368,287.511 237.5,289.5C 236.5,289.833 235.5,290.167 234.5,290.5C 232.97,290.36 231.97,289.693 231.5,288.5C 233.176,287.817 233.843,286.483 233.5,284.5 Z"/></g>
<g><path style="opacity:1" fill="#353535" d="M 147.5,296.5 C 148.167,296.5 148.833,296.5 149.5,296.5C 149.03,297.693 148.03,298.36 146.5,298.5C 145.5,298.167 144.5,297.833 143.5,297.5C 144.689,296.571 146.022,296.238 147.5,296.5 Z"/></g>
<g><path style="opacity:1" fill="#1f1f1f" d="M 363.5,306.5 C 360.097,308.968 356.097,310.302 351.5,310.5C 349.048,310.461 347.048,309.794 345.5,308.5C 351.535,308.092 357.535,307.426 363.5,306.5 Z"/></g>
<g><path style="opacity:1" fill="#1e1e1e" d="M 371.5,338.5 C 369.283,340.08 366.616,341.08 363.5,341.5C 359.555,342.491 355.555,342.824 351.5,342.5C 357.677,339.931 364.344,338.598 371.5,338.5 Z"/></g>
<g><path style="opacity:1" fill="#282828" d="M 347.5,344.5 C 343.029,343.911 339.029,344.577 335.5,346.5C 333.824,345.817 333.157,344.483 333.5,342.5C 338.619,341.897 343.285,342.564 347.5,344.5 Z"/></g>
<g><path style="opacity:1" fill="#282828" d="M 333.5,350.5 C 333.5,353.833 333.5,357.167 333.5,360.5C 332.223,359.306 331.556,357.64 331.5,355.5C 331.556,353.36 332.223,351.694 333.5,350.5 Z"/></g>
<g><path style="opacity:1" fill="#171717" d="M 317.5,374.5 C 230.082,375.145 142.748,374.479 55.5,372.5C 55.9704,371.307 56.9704,370.64 58.5,370.5C 145.113,371.818 231.446,373.151 317.5,374.5 Z"/></g>
</svg>
