<?xml version="1.0" encoding="UTF-8"?>
<!DOCTYPE svg PUBLIC "-//W3C//DTD SVG 1.1//EN" "http://www.w3.org/Graphics/SVG/1.1/DTD/svg11.dtd">
<svg xmlns="http://www.w3.org/2000/svg" version="1.1" width="499px" height="421px" style="shape-rendering:geometricPrecision; text-rendering:geometricPrecision; image-rendering:optimizeQuality; fill-rule:evenodd; clip-rule:evenodd" xmlns:xlink="http://www.w3.org/1999/xlink">
<g><path style="opacity:1" fill="#fefffe" d="M -0.5,-0.5 C 165.833,-0.5 332.167,-0.5 498.5,-0.5C 498.5,139.833 498.5,280.167 498.5,420.5C 332.167,420.5 165.833,420.5 -0.5,420.5C -0.5,280.167 -0.5,139.833 -0.5,-0.5 Z"/></g>
<g><path style="opacity:1" fill="#0a0a0a" d="M 285.5,18.5 C 290.875,18.1718 296.208,18.5052 301.5,19.5C 302.988,21.5772 304.988,22.5772 307.5,22.5C 309.756,30.6009 312.423,38.6009 315.5,46.5C 315.081,47.6721 314.415,48.6721 313.5,49.5C 307.579,52.0294 301.579,54.3628 295.5,56.5C 285.196,47.197 275.196,37.5303 265.5,27.5C 272.286,24.2599 278.953,21.2599 285.5,18.5 Z"/></g>
<g><path style="opacity:1" fill="#090909" d="M 213.5,44.5 C 216.898,44.1796 220.232,44.513 223.5,45.5C 231.233,53.9031 239.566,61.5698 248.5,68.5C 249.466,70.396 249.799,72.396 249.5,74.5C 239.873,76.4864 230.54,79.4864 221.5,83.5C 218.833,84.8333 216.167,84.8333 213.5,83.5C 204.768,74.0986 195.435,65.4319 185.5,57.5C 187.156,55.6706 189.156,54.3372 191.5,53.5C 197.5,51.5 203.5,49.5 209.5,47.5C 211.332,46.9432 212.665,45.9432 213.5,44.5 Z"/></g>
<g><path style="opacity:1" fill="#080808" d="M 137.5,72.5 C 139.604,72.2011 141.604,72.5344 143.5,73.5C 151.5,81.5 159.5,89.5 167.5,97.5C 168.689,98.4287 170.022,98.762 171.5,98.5C 171.5,99.8333 171.5,101.167 171.5,102.5C 160.679,105.552 150.013,109.219 139.5,113.5C 136.833,114.833 134.167,114.833 131.5,113.5C 123.167,105.167 114.833,96.8333 106.5,88.5C 105.571,87.3112 105.238,85.9778 105.5,84.5C 116.74,81.5264 127.406,77.5264 137.5,72.5 Z"/></g>
<g><path style="opacity:1" fill="#010101" d="M 317.5,374.5 C 231.446,373.151 145.113,371.818 58.5,370.5C 56.9704,370.64 55.9704,371.307 55.5,372.5C 47.0778,367.411 41.7445,360.078 39.5,350.5C 41.4949,305.512 42.1616,260.179 41.5,214.5C 41.2859,209.694 43.2859,206.027 47.5,203.5C 49.396,202.534 51.396,202.201 53.5,202.5C 143.173,203.164 232.506,202.497 321.5,200.5C 328.364,202.699 332.364,207.365 333.5,214.5C 333.5,247.167 333.5,279.833 333.5,312.5C 336.698,313.036 339.365,312.369 341.5,310.5C 355.222,308.484 368.555,304.818 381.5,299.5C 383.601,296.73 386.268,294.73 389.5,293.5C 405.94,275.405 411.607,254.405 406.5,230.5C 401.617,218.285 393.284,209.285 381.5,203.5C 376.167,202.833 370.833,202.167 365.5,201.5C 347.99,191.48 340.323,176.48 342.5,156.5C 344.501,148.981 349.501,145.648 357.5,146.5C 357.168,137.143 357.502,127.81 358.5,118.5C 359.66,110.648 363.994,107.648 371.5,109.5C 372.5,110.5 373.5,111.5 374.5,112.5C 375.833,125.833 377.167,125.833 378.5,112.5C 382.761,102.865 389.761,99.5318 399.5,102.5C 402.049,108.813 402.049,115.146 399.5,121.5C 399.833,122.5 400.167,123.5 400.5,124.5C 406.427,120.048 412.761,119.382 419.5,122.5C 419.579,124.666 420.246,126.666 421.5,128.5C 419.227,134.44 415.227,138.773 409.5,141.5C 408.167,143.5 406.833,145.5 405.5,147.5C 406.167,147.833 406.833,148.167 407.5,148.5C 410.328,146.252 413.328,144.252 416.5,142.5C 421.106,146.176 422.439,150.843 420.5,156.5C 418.5,160.5 416.5,164.5 414.5,168.5C 411.5,171.5 408.5,174.5 405.5,177.5C 438.286,200.174 449.953,231.174 440.5,270.5C 432.026,303.64 411.692,325.974 379.5,337.5C 365.13,341.784 350.463,344.117 335.5,344.5C 334.504,350.474 333.504,356.474 332.5,362.5C 331.833,363.833 331.167,365.167 330.5,366.5C 326.612,369.941 322.279,372.608 317.5,374.5 Z"/></g>
<g><path style="opacity:1" fill="#040404" d="M 73.5,184.5 C 69.5549,183.175 65.2216,182.508 60.5,182.5C 55.7784,182.508 51.4451,183.175 47.5,184.5C 41.5,182.5 37.5,178.5 35.5,172.5C 36.8255,168.555 37.4921,164.222 37.5,159.5C 37.4921,154.778 36.8255,150.445 35.5,146.5C 31.1808,139.635 28.5141,131.968 27.5,123.5C 27.7297,119.71 29.063,116.376 31.5,113.5C 40.0181,108.66 49.0181,104.994 58.5,102.5C 64.737,106.73 70.4036,111.73 75.5,117.5C 76.6888,118.429 78.0222,118.762 79.5,118.5C 79.5,119.833 79.5,121.167 79.5,122.5C 91.8353,127.847 96.1687,137.181 92.5,150.5C 86.1397,161.894 79.8063,173.227 73.5,184.5 Z"/></g>
<g><path style="opacity:1" fill="#c2c2c2" d="M 395.5,126.5 C 396.978,126.238 398.311,126.571 399.5,127.5C 395.782,130.616 392.782,134.282 390.5,138.5C 390.167,137.833 389.833,137.167 389.5,136.5C 391.02,132.779 393.02,129.446 395.5,126.5 Z"/></g>
<g><path style="opacity:1" fill="#4a4a4a" d="M 373.5,124.5 C 372.931,128.329 373.598,131.663 375.5,134.5C 375.675,140.697 374.675,141.363 372.5,136.5C 372.167,134.5 371.833,132.5 371.5,130.5C 371.539,128.048 372.206,126.048 373.5,124.5 Z"/></g>
<g><path style="opacity:1" fill="#dbdbdb" d="M 373.5,124.5 C 375.402,127.337 376.069,130.671 375.5,134.5C 373.598,131.663 372.931,128.329 373.5,124.5 Z"/></g>
<g><path style="opacity:1" fill="#2d2d2d" d="M 35.5,146.5 C 36.8255,150.445 37.4921,154.778 37.5,159.5C 37.4921,164.222 36.8255,168.555 35.5,172.5C 35.5,163.833 35.5,155.167 35.5,146.5 Z"/></g>
<g><path style="opacity:1" fill="#2d2d2d" d="M 177.5,152.5 C 165.211,150.52 152.544,149.853 139.5,150.5C 152.458,148.519 165.791,147.852 179.5,148.5C 179.843,150.483 179.176,151.817 177.5,152.5 Z"/></g>
<g><path style="opacity:1" fill="#2d2d2d" d="M 263.5,152.5 C 251.681,150.589 239.681,149.923 227.5,150.5C 239.12,148.521 251.12,147.854 263.5,148.5C 263.5,149.833 263.5,151.167 263.5,152.5 Z"/></g>
<g><path style="opacity:1" fill="#050505" d="M 139.5,150.5 C 152.544,149.853 165.211,150.52 177.5,152.5C 173.182,163.802 167.849,174.469 161.5,184.5C 149.211,182.52 136.544,181.853 123.5,182.5C 127.818,171.198 133.151,160.531 139.5,150.5 Z"/></g>
<g><path style="opacity:1" fill="#050505" d="M 227.5,150.5 C 239.681,149.923 251.681,150.589 263.5,152.5C 257.469,163.237 251.469,173.904 245.5,184.5C 233.88,182.521 221.88,181.854 209.5,182.5C 215.531,171.763 221.531,161.096 227.5,150.5 Z"/></g>
<g><path style="opacity:1" fill="#050505" d="M 311.5,150.5 C 318.167,150.5 324.833,150.5 331.5,150.5C 330.87,158.243 331.537,165.576 333.5,172.5C 330.061,177.939 325.395,181.939 319.5,184.5C 311.903,182.533 303.903,181.866 295.5,182.5C 299.818,171.198 305.151,160.531 311.5,150.5 Z"/></g>
<g><path style="opacity:1" fill="#636363" d="M 357.5,148.5 C 358.833,148.5 360.167,148.5 361.5,148.5C 361.799,150.604 361.466,152.604 360.5,154.5C 358.423,153.012 357.423,151.012 357.5,148.5 Z"/></g>
<g><path style="opacity:1" fill="#a7a7a7" d="M 401.5,148.5 C 402.586,148.62 403.253,149.287 403.5,150.5C 403.167,151.167 402.833,151.833 402.5,152.5C 401.571,151.311 401.238,149.978 401.5,148.5 Z"/></g>
<g><path style="opacity:1" fill="#252525" d="M 333.5,172.5 C 331.537,165.576 330.87,158.243 331.5,150.5C 324.833,150.5 318.167,150.5 311.5,150.5C 318.424,148.537 325.757,147.87 333.5,148.5C 333.5,156.5 333.5,164.5 333.5,172.5 Z"/></g>
<g><path style="opacity:1" fill="#2e2e2e" d="M 73.5,184.5 C 64.8333,184.5 56.1667,184.5 47.5,184.5C 51.4451,183.175 55.7784,182.508 60.5,182.5C 65.2216,182.508 69.5549,183.175 73.5,184.5 Z"/></g>
<g><path style="opacity:1" fill="#2e2e2e" d="M 123.5,182.5 C 136.544,181.853 149.211,182.52 161.5,184.5C 148.15,184.833 134.817,184.499 121.5,183.5C 121.957,182.702 122.624,182.369 123.5,182.5 Z"/></g>
<g><path style="opacity:1" fill="#2f2f2f" d="M 209.5,182.5 C 221.88,181.854 233.88,182.521 245.5,184.5C 233.12,185.146 221.12,184.479 209.5,182.5 Z"/></g>
<g><path style="opacity:1" fill="#2e2e2e" d="M 295.5,182.5 C 303.903,181.866 311.903,182.533 319.5,184.5C 310.808,184.831 302.141,184.498 293.5,183.5C 293.957,182.702 294.624,182.369 295.5,182.5 Z"/></g>
<g><path style="opacity:1" fill="#2f2f2f" d="M 321.5,200.5 C 232.506,202.497 143.173,203.164 53.5,202.5C 142.494,200.503 231.827,199.836 321.5,200.5 Z"/></g>
<g><path style="opacity:1" fill="#1f1f1f" d="M 333.5,214.5 C 335.493,246.149 336.159,278.149 335.5,310.5C 337.5,310.5 339.5,310.5 341.5,310.5C 339.365,312.369 336.698,313.036 333.5,312.5C 333.5,279.833 333.5,247.167 333.5,214.5 Z"/></g>
<g><path style="opacity:1" fill="#2d2d2d" d="M 41.5,214.5 C 42.1616,260.179 41.4949,305.512 39.5,350.5C 38.8384,304.821 39.5051,259.488 41.5,214.5 Z"/></g>
<g><path style="opacity:1" fill="#fefffe" d="M 233.5,260.5 C 238.502,260.522 238.835,261.855 234.5,264.5C 233.833,266.5 233.167,268.5 232.5,270.5C 231.588,276.643 231.588,282.643 232.5,288.5C 227.246,286.873 222.58,284.206 218.5,280.5C 217.167,277.833 217.167,275.167 218.5,272.5C 223.457,268.221 228.457,264.221 233.5,260.5 Z"/></g>
<g><path style="opacity:1" fill="#b8b9b8" d="M 265.5,264.5 C 263.663,264.361 263.33,263.694 264.5,262.5C 265.298,262.957 265.631,263.624 265.5,264.5 Z"/></g>
<g><path style="opacity:1" fill="#fefffe" d="M 265.5,264.5 C 273.188,266.838 279.188,271.505 283.5,278.5C 283.081,279.672 282.415,280.672 281.5,281.5C 274.36,285.099 267.027,288.099 259.5,290.5C 260.589,286.314 262.256,282.314 264.5,278.5C 265.493,273.88 265.827,269.214 265.5,264.5 Z"/></g>
<g><path style="opacity:1" fill="#fefffe" d="M 145.5,266.5 C 152.787,268.81 159.454,272.144 165.5,276.5C 165.855,278.89 166.522,281.223 167.5,283.5C 166.522,285.777 165.855,288.11 165.5,290.5C 159.904,291.7 154.571,293.7 149.5,296.5C 148.833,296.167 148.167,295.833 147.5,295.5C 150.36,291.685 151.693,287.352 151.5,282.5C 151.167,279.833 150.833,277.167 150.5,274.5C 149.176,271.532 147.509,268.866 145.5,266.5 Z"/></g>
<g><path style="opacity:1" fill="#fefffe" d="M 115.5,274.5 C 117.438,278.826 119.105,283.493 120.5,288.5C 121.43,291.362 123.097,293.695 125.5,295.5C 124.5,295.833 123.5,296.167 122.5,296.5C 118.899,294.861 115.233,293.528 111.5,292.5C 111.421,290.334 110.754,288.334 109.5,286.5C 112.577,283.013 114.577,279.013 115.5,274.5 Z"/></g>
<g><path style="opacity:1" fill="#171717" d="M 317.5,374.5 C 230.082,375.145 142.748,374.479 55.5,372.5C 55.9704,371.307 56.9704,370.64 58.5,370.5C 145.113,371.818 231.446,373.151 317.5,374.5 Z"/></g>
</svg>
