<?xml version="1.0" encoding="UTF-8"?>
<!DOCTYPE svg PUBLIC "-//W3C//DTD SVG 1.1//EN" "http://www.w3.org/Graphics/SVG/1.1/DTD/svg11.dtd">
<svg xmlns="http://www.w3.org/2000/svg" version="1.1" width="484px" height="484px" style="shape-rendering:geometricPrecision; text-rendering:geometricPrecision; image-rendering:optimizeQuality; fill-rule:evenodd; clip-rule:evenodd" xmlns:xlink="http://www.w3.org/1999/xlink">
<g><path style="opacity:0.58" fill="#666666" d="M 294.5,54.5 C 294.5,55.5 294.5,56.5 294.5,57.5C 290.573,58.5254 286.573,59.1921 282.5,59.5C 282.5,58.5 282.5,57.5 282.5,56.5C 286.573,56.1921 290.573,55.5254 294.5,54.5 Z"/></g>
<g><path style="opacity:0.365" fill="#5a5a5a" d="M 301.5,54.5 C 305.487,54.0114 307.82,55.678 308.5,59.5C 307.82,55.678 305.487,54.0114 301.5,54.5 Z"/></g>
<g><path style="opacity:0.988" fill="#090909" d="M 294.5,54.5 C 296.833,54.5 299.167,54.5 301.5,54.5C 301.5,55.5 301.5,56.5 301.5,57.5C 304.076,57.4679 306.409,58.1346 308.5,59.5C 310.352,63.9816 311.685,68.6482 312.5,73.5C 313.5,73.5 314.5,73.5 315.5,73.5C 315.5,75.1667 315.5,76.8333 315.5,78.5C 316.5,78.5 317.5,78.5 318.5,78.5C 318.5,79.1667 318.5,79.8333 318.5,80.5C 317.539,82.2646 317.205,84.2646 317.5,86.5C 316.833,86.5 316.167,86.5 315.5,86.5C 313.517,86.1568 312.183,86.8235 311.5,88.5C 310.5,88.5 309.5,88.5 308.5,88.5C 306.517,88.1568 305.183,88.8235 304.5,90.5C 303.5,90.5 302.5,90.5 301.5,90.5C 299.989,89.4975 298.322,88.8308 296.5,88.5C 294.964,85.2771 292.964,82.2771 290.5,79.5C 289.675,78.6143 288.675,78.281 287.5,78.5C 284.922,77.5873 282.589,76.254 280.5,74.5C 280.715,72.8212 280.048,71.8212 278.5,71.5C 278.179,69.9519 277.179,69.2852 275.5,69.5C 275.5,68.1667 274.833,67.5 273.5,67.5C 273.5,65.5 273.5,63.5 273.5,61.5C 274.167,61.5 274.833,61.5 275.5,61.5C 277.781,61.9227 279.448,61.256 280.5,59.5C 281.167,59.5 281.833,59.5 282.5,59.5C 286.573,59.1921 290.573,58.5254 294.5,57.5C 294.5,56.5 294.5,55.5 294.5,54.5 Z"/></g>
<g><path style="opacity:0.339" fill="#989898" d="M 280.5,59.5 C 279.448,61.256 277.781,61.9227 275.5,61.5C 276.552,59.744 278.219,59.0773 280.5,59.5 Z"/></g>
<g><path style="opacity:0.142" fill="#aeaeae" d="M 273.5,61.5 C 273.5,63.5 273.5,65.5 273.5,67.5C 272.307,67.0296 271.64,66.0296 271.5,64.5C 271.64,62.9704 272.307,61.9704 273.5,61.5 Z"/></g>
<g><path style="opacity:0.039" fill="#cccccc" d="M 273.5,67.5 C 274.833,67.5 275.5,68.1667 275.5,69.5C 274.167,69.5 273.5,68.8333 273.5,67.5 Z"/></g>
<g><path style="opacity:0.071" fill="#d5d5d5" d="M 275.5,69.5 C 277.179,69.2852 278.179,69.9519 278.5,71.5C 276.821,71.7148 275.821,71.0481 275.5,69.5 Z"/></g>
<g><path style="opacity:0.039" fill="#c8c8c8" d="M 278.5,71.5 C 280.048,71.8212 280.715,72.8212 280.5,74.5C 278.952,74.1788 278.285,73.1788 278.5,71.5 Z"/></g>
<g><path style="opacity:0.808" fill="#3e3e3e" d="M 308.5,59.5 C 310.143,59.4802 311.476,60.1468 312.5,61.5C 313.777,65.464 314.777,69.464 315.5,73.5C 314.5,73.5 313.5,73.5 312.5,73.5C 311.685,68.6482 310.352,63.9816 308.5,59.5 Z"/></g>
<g><path style="opacity:0.305" fill="#8d8d8d" d="M 315.5,73.5 C 316.5,73.5 317.5,73.5 318.5,73.5C 318.5,75.1667 318.5,76.8333 318.5,78.5C 317.5,78.5 316.5,78.5 315.5,78.5C 315.5,76.8333 315.5,75.1667 315.5,73.5 Z"/></g>
<g><path style="opacity:0.043" fill="#d7d7d7" d="M 230.5,80.5 C 228.833,80.5 227.167,80.5 225.5,80.5C 225.791,79.3509 226.624,78.6842 228,78.5C 229.376,78.6842 230.209,79.3509 230.5,80.5 Z"/></g>
<g><path style="opacity:0.702" fill="#414141" d="M 287.5,78.5 C 288.675,78.281 289.675,78.6143 290.5,79.5C 292.964,82.2771 294.964,85.2771 296.5,88.5C 294.9,87.748 293.4,86.748 292,85.5C 289.836,83.5203 288.336,81.187 287.5,78.5 Z"/></g>
<g><path style="opacity:0.138" fill="#a7a7a7" d="M 318.5,80.5 C 320.308,81.9179 320.975,83.9179 320.5,86.5C 319.5,86.5 318.5,86.5 317.5,86.5C 317.205,84.2646 317.539,82.2646 318.5,80.5 Z"/></g>
<g><path style="opacity:0.063" fill="#c5c5c5" d="M 230.5,80.5 C 231.833,80.5 232.5,81.1667 232.5,82.5C 232.5,81.1667 231.833,80.5 230.5,80.5 Z"/></g>
<g><path style="opacity:0.157" fill="#adadad" d="M 216.5,82.5 C 216.5,83.5 216.5,84.5 216.5,85.5C 215.5,85.5 214.5,85.5 213.5,85.5C 213.5,84.5 213.5,83.5 213.5,82.5C 214.5,82.5 215.5,82.5 216.5,82.5 Z"/></g>
<g><path style="opacity:0.988" fill="#0b0b0b" d="M 225.5,80.5 C 227.167,80.5 228.833,80.5 230.5,80.5C 230.5,81.8333 231.167,82.5 232.5,82.5C 232.5,83.5 232.5,84.5 232.5,85.5C 233.5,85.5 234.5,85.5 235.5,85.5C 235.5,86.8333 236.167,87.5 237.5,87.5C 238.684,90.3754 240.351,93.0421 242.5,95.5C 243.524,96.8532 244.857,97.5198 246.5,97.5C 250.121,99.1313 253.121,101.465 255.5,104.5C 255.5,106.167 255.5,107.833 255.5,109.5C 254.167,109.5 252.833,109.5 251.5,109.5C 250.5,109.5 249.5,109.5 248.5,109.5C 245.664,110.776 242.664,111.442 239.5,111.5C 239.5,112.5 239.5,113.5 239.5,114.5C 237.219,114.077 235.552,114.744 234.5,116.5C 233.833,116.5 233.167,116.5 232.5,116.5C 230.833,116.5 229.167,116.5 227.5,116.5C 227.715,118.179 227.048,119.179 225.5,119.5C 224.33,117.721 222.664,116.721 220.5,116.5C 220.5,115.167 219.833,114.5 218.5,114.5C 218.167,111.5 216.5,109.833 213.5,109.5C 212.5,105.833 210.167,103.5 206.5,102.5C 204.989,101.498 203.322,100.831 201.5,100.5C 201.262,97.9315 199.929,96.2648 197.5,95.5C 197.5,94.5 197.5,93.5 197.5,92.5C 199.737,91.551 202.071,90.8844 204.5,90.5C 204.5,89.5 204.5,88.5 204.5,87.5C 205.167,87.5 205.833,87.5 206.5,87.5C 208.179,87.7148 209.179,87.0481 209.5,85.5C 210.833,85.5 212.167,85.5 213.5,85.5C 214.5,85.5 215.5,85.5 216.5,85.5C 216.5,84.5 216.5,83.5 216.5,82.5C 219.436,81.5942 222.436,80.9275 225.5,80.5 Z"/></g>
<g><path style="opacity:0.18" fill="#b0b0b0" d="M 232.5,82.5 C 233.5,82.5 234.5,82.5 235.5,82.5C 235.5,83.5 235.5,84.5 235.5,85.5C 235.5,84.5 235.5,83.5 235.5,82.5C 234.5,82.5 233.5,82.5 232.5,82.5 Z"/></g>
<g><path style="opacity:0.059" fill="#bfbfbf" d="M 209.5,85.5 C 209.179,87.0481 208.179,87.7148 206.5,87.5C 206.821,85.9519 207.821,85.2852 209.5,85.5 Z"/></g>
<g><path style="opacity:0.171" fill="#a8a8a8" d="M 235.5,85.5 C 236.833,85.5 237.5,86.1667 237.5,87.5C 237.5,86.1667 236.833,85.5 235.5,85.5 Z"/></g>
<g><path style="opacity:0.086" fill="#a4a4a4" d="M 315.5,86.5 C 314.817,88.1765 313.483,88.8432 311.5,88.5C 312.183,86.8235 313.517,86.1568 315.5,86.5 Z"/></g>
<g><path style="opacity:0.461" fill="#5e5e5e" d="M 204.5,87.5 C 204.5,88.5 204.5,89.5 204.5,90.5C 202.071,90.8844 199.737,91.551 197.5,92.5C 197.5,91.1667 196.833,90.5 195.5,90.5C 198.152,88.7108 201.152,87.7108 204.5,87.5 Z"/></g>
<g><path style="opacity:0.039" fill="#6e6e6e" d="M 237.5,87.5 C 239.1,88.252 240.6,89.252 242,90.5C 244.164,92.4797 245.664,94.813 246.5,97.5C 244.857,97.5198 243.524,96.8532 242.5,95.5C 240.351,93.0421 238.684,90.3754 237.5,87.5 Z"/></g>
<g><path style="opacity:0.086" fill="#b4b4b4" d="M 308.5,88.5 C 307.817,90.1765 306.483,90.8432 304.5,90.5C 305.183,88.8235 306.517,88.1568 308.5,88.5 Z"/></g>
<g><path style="opacity:0.102" fill="#c3c3c3" d="M 195.5,90.5 C 196.833,90.5 197.5,91.1667 197.5,92.5C 197.5,93.5 197.5,94.5 197.5,95.5C 195.744,94.4479 195.077,92.7812 195.5,90.5 Z"/></g>
<g><path style="opacity:0.118" fill="#a8a8a8" d="M 296.5,88.5 C 298.322,88.8308 299.989,89.4975 301.5,90.5C 301.5,91.5 301.5,92.5 301.5,93.5C 300.5,93.5 299.5,93.5 298.5,93.5C 298.169,91.6776 297.502,90.0109 296.5,88.5 Z"/></g>
<g><path style="opacity:0.118" fill="#4c4c4c" d="M 206.5,102.5 C 210.167,103.5 212.5,105.833 213.5,109.5C 211.989,108.498 210.322,107.831 208.5,107.5C 208.169,105.678 207.502,104.011 206.5,102.5 Z"/></g>
<g><path style="opacity:0.031" fill="#d8d8d8" d="M 255.5,104.5 C 256.5,104.5 257.5,104.5 258.5,104.5C 258.5,106.167 258.5,107.833 258.5,109.5C 257.5,109.5 256.5,109.5 255.5,109.5C 255.5,107.833 255.5,106.167 255.5,104.5 Z"/></g>
<g><path style="opacity:0.331" fill="#8d8d8d" d="M 154.5,108.5 C 152.833,108.5 151.167,108.5 149.5,108.5C 149.5,109.5 149.5,110.5 149.5,111.5C 147.833,111.5 146.167,111.5 144.5,111.5C 144.5,110.5 144.5,109.5 144.5,108.5C 147.23,108.527 149.73,107.86 152,106.5C 153.376,106.684 154.209,107.351 154.5,108.5 Z"/></g>
<g><path style="opacity:0.184" fill="#aeaeae" d="M 154.5,108.5 C 156.048,108.821 156.715,109.821 156.5,111.5C 154.952,111.179 154.285,110.179 154.5,108.5 Z"/></g>
<g><path style="opacity:0.227" fill="#9f9f9f" d="M 248.5,109.5 C 249.5,109.5 250.5,109.5 251.5,109.5C 251.5,110.5 251.5,111.5 251.5,112.5C 250.5,112.5 249.5,112.5 248.5,112.5C 248.5,111.5 248.5,110.5 248.5,109.5 Z"/></g>
<g><path style="opacity:0.987" fill="#090909" d="M 154.5,108.5 C 154.285,110.179 154.952,111.179 156.5,111.5C 157.502,113.011 158.169,114.678 158.5,116.5C 160.322,116.831 161.989,117.498 163.5,118.5C 164.833,118.5 165.5,119.167 165.5,120.5C 167.624,126.362 171.624,130.362 177.5,132.5C 178.167,132.5 178.833,132.5 179.5,132.5C 178.833,134.5 178.167,136.5 177.5,138.5C 175.409,139.865 173.076,140.532 170.5,140.5C 168.219,140.077 166.552,140.744 165.5,142.5C 164.833,142.5 164.167,142.5 163.5,142.5C 159.427,142.808 155.427,143.475 151.5,144.5C 151.5,145.5 151.5,146.5 151.5,147.5C 150.833,147.5 150.167,147.5 149.5,147.5C 147.833,147.5 146.167,147.5 144.5,147.5C 143.5,143.833 141.167,141.5 137.5,140.5C 135.9,139.748 134.4,138.748 133,137.5C 130.836,135.52 129.336,133.187 128.5,130.5C 127.5,130.5 126.5,130.5 125.5,130.5C 125.5,129.167 124.833,128.5 123.5,128.5C 123.5,127.167 122.833,126.5 121.5,126.5C 121.715,124.821 121.048,123.821 119.5,123.5C 119.5,122.5 119.5,121.5 119.5,120.5C 121.483,120.843 122.817,120.176 123.5,118.5C 127.573,118.192 131.573,117.525 135.5,116.5C 135.5,115.5 135.5,114.5 135.5,113.5C 136.167,113.5 136.833,113.5 137.5,113.5C 139.781,113.923 141.448,113.256 142.5,111.5C 143.167,111.5 143.833,111.5 144.5,111.5C 146.167,111.5 147.833,111.5 149.5,111.5C 149.5,110.5 149.5,109.5 149.5,108.5C 151.167,108.5 152.833,108.5 154.5,108.5 Z"/></g>
<g><path style="opacity:0.122" fill="#a1a1a1" d="M 142.5,111.5 C 141.448,113.256 139.781,113.923 137.5,113.5C 138.552,111.744 140.219,111.077 142.5,111.5 Z"/></g>
<g><path style="opacity:0.275" fill="#686868" d="M 213.5,109.5 C 216.5,109.833 218.167,111.5 218.5,114.5C 215.5,114.167 213.833,112.5 213.5,109.5 Z"/></g>
<g><path style="opacity:0.455" fill="#404040" d="M 248.5,109.5 C 248.5,110.5 248.5,111.5 248.5,112.5C 247.833,112.5 247.167,112.5 246.5,112.5C 244.219,112.077 242.552,112.744 241.5,114.5C 240.833,114.5 240.167,114.5 239.5,114.5C 239.5,113.5 239.5,112.5 239.5,111.5C 242.664,111.442 245.664,110.776 248.5,109.5 Z"/></g>
<g><path style="opacity:0.167" fill="#aaaaaa" d="M 246.5,112.5 C 245.365,114.213 243.698,114.88 241.5,114.5C 242.552,112.744 244.219,112.077 246.5,112.5 Z"/></g>
<g><path style="opacity:0.331" fill="#848484" d="M 218.5,114.5 C 219.833,114.5 220.5,115.167 220.5,116.5C 219.167,116.5 218.5,115.833 218.5,114.5 Z"/></g>
<g><path style="opacity:0.475" fill="#777777" d="M 135.5,113.5 C 135.5,114.5 135.5,115.5 135.5,116.5C 131.573,117.525 127.573,118.192 123.5,118.5C 123.5,117.5 123.5,116.5 123.5,115.5C 127.573,115.192 131.573,114.525 135.5,113.5 Z"/></g>
<g><path style="opacity:0.455" fill="#727272" d="M 156.5,111.5 C 160.167,112.5 162.5,114.833 163.5,118.5C 162.5,114.833 160.167,112.5 156.5,111.5 Z"/></g>
<g><path style="opacity:0.055" fill="#aeaeae" d="M 239.5,114.5 C 238.448,116.256 236.781,116.923 234.5,116.5C 235.552,114.744 237.219,114.077 239.5,114.5 Z"/></g>
<g><path style="opacity:0.443" fill="#7b7b7b" d="M 123.5,118.5 C 122.817,120.176 121.483,120.843 119.5,120.5C 120.183,118.824 121.517,118.157 123.5,118.5 Z"/></g>
<g><path style="opacity:0.278" fill="#5b5b5b" d="M 220.5,116.5 C 222.664,116.721 224.33,117.721 225.5,119.5C 224.5,119.5 223.5,119.5 222.5,119.5C 220.952,119.179 220.285,118.179 220.5,116.5 Z"/></g>
<g><path style="opacity:0.076" fill="#b1b1b1" d="M 232.5,116.5 C 232.5,117.5 232.5,118.5 232.5,119.5C 229.77,119.473 227.27,120.14 225,121.5C 223.624,121.316 222.791,120.649 222.5,119.5C 223.5,119.5 224.5,119.5 225.5,119.5C 227.048,119.179 227.715,118.179 227.5,116.5C 229.167,116.5 230.833,116.5 232.5,116.5 Z"/></g>
<g><path style="opacity:0.088" fill="#c9c9c9" d="M 119.5,120.5 C 119.5,121.5 119.5,122.5 119.5,123.5C 118.5,123.5 117.5,123.5 116.5,123.5C 116.5,122.5 116.5,121.5 116.5,120.5C 117.5,120.5 118.5,120.5 119.5,120.5 Z"/></g>
<g><path style="opacity:0.094" fill="#cccccc" d="M 119.5,123.5 C 121.048,123.821 121.715,124.821 121.5,126.5C 119.952,126.179 119.285,125.179 119.5,123.5 Z"/></g>
<g><path style="opacity:0.808" fill="#2f2f2f" d="M 165.5,120.5 C 168.833,122.833 172.167,125.167 175.5,127.5C 175.285,129.179 175.952,130.179 177.5,130.5C 177.5,131.167 177.5,131.833 177.5,132.5C 171.624,130.362 167.624,126.362 165.5,120.5 Z"/></g>
<g><path style="opacity:0.039" fill="#bdbdbd" d="M 121.5,126.5 C 122.833,126.5 123.5,127.167 123.5,128.5C 122.167,128.5 121.5,127.833 121.5,126.5 Z"/></g>
<g><path style="opacity:0.055" fill="#d8d8d8" d="M 123.5,128.5 C 124.833,128.5 125.5,129.167 125.5,130.5C 124.167,130.5 123.5,129.833 123.5,128.5 Z"/></g>
<g><path style="opacity:0.047" fill="#d6d6d6" d="M 177.5,130.5 C 178.833,130.5 179.5,131.167 179.5,132.5C 178.833,132.5 178.167,132.5 177.5,132.5C 177.5,131.833 177.5,131.167 177.5,130.5 Z"/></g>
<g><path style="opacity:0.306" fill="#8b8b8b" d="M 179.5,132.5 C 180.5,132.5 181.5,132.5 182.5,132.5C 183.575,136.938 181.908,138.938 177.5,138.5C 178.167,136.5 178.833,134.5 179.5,132.5 Z"/></g>
<g><path style="opacity:0.622" fill="#707070" d="M 78.5,139.5 C 75.1667,139.5 71.8333,139.5 68.5,139.5C 69.6936,138.223 71.3603,137.556 73.5,137.5C 75.6397,137.556 77.3064,138.223 78.5,139.5 Z"/></g>
<g><path style="opacity:0.318" fill="#8d8d8d" d="M 66.5,139.5 C 65.4479,141.256 63.7812,141.923 61.5,141.5C 62.5521,139.744 64.2188,139.077 66.5,139.5 Z"/></g>
<g><path style="opacity:0.102" fill="#b7b7b7" d="M 78.5,139.5 C 79.8333,139.5 80.5,140.167 80.5,141.5C 80.5,140.167 79.8333,139.5 78.5,139.5 Z"/></g>
<g><path style="opacity:0.996" fill="#030303" d="M 66.5,139.5 C 67.1667,139.5 67.8333,139.5 68.5,139.5C 71.8333,139.5 75.1667,139.5 78.5,139.5C 78.5,140.833 79.1667,141.5 80.5,141.5C 81.7468,146.413 84.7468,149.747 89.5,151.5C 89.8333,154.5 91.5,156.167 94.5,156.5C 98.1212,158.131 101.121,160.465 103.5,163.5C 103.5,164.167 103.5,164.833 103.5,165.5C 104.532,168.706 105.199,172.039 105.5,175.5C 105.016,179.562 104.349,183.562 103.5,187.5C 103.5,188.167 103.5,188.833 103.5,189.5C 100.108,190.99 98.7745,193.657 99.5,197.5C 99.5,198.167 99.5,198.833 99.5,199.5C 97.8212,199.285 96.8212,199.952 96.5,201.5C 96.5,202.167 96.5,202.833 96.5,203.5C 95.8333,203.5 95.1667,203.5 94.5,203.5C 92.0735,206.386 90.4069,209.72 89.5,213.5C 89.5,214.167 89.5,214.833 89.5,215.5C 80.1667,215.5 70.8333,215.5 61.5,215.5C 60.8333,215.5 60.1667,215.5 59.5,215.5C 58.4975,213.989 57.8308,212.322 57.5,210.5C 56.5,210.5 55.5,210.5 54.5,210.5C 54.5,209.833 54.5,209.167 54.5,208.5C 55.1364,199.435 54.4698,190.769 52.5,182.5C 52.5,180.833 52.5,179.167 52.5,177.5C 51.5,177.5 50.5,177.5 49.5,177.5C 49.5,176.833 49.5,176.167 49.5,175.5C 50.4511,174.081 50.7845,172.415 50.5,170.5C 49.5,170.5 48.5,170.5 47.5,170.5C 45.9562,167.752 45.2895,164.752 45.5,161.5C 45.5,158.833 45.5,156.167 45.5,153.5C 45.5,152.833 45.5,152.167 45.5,151.5C 47.0109,150.498 48.6776,149.831 50.5,149.5C 50.8308,147.678 51.4975,146.011 52.5,144.5C 53.1667,144.5 53.8333,144.5 54.5,144.5C 56.1667,144.5 57.8333,144.5 59.5,144.5C 59.5,143.5 59.5,142.5 59.5,141.5C 60.1667,141.5 60.8333,141.5 61.5,141.5C 63.7812,141.923 65.4479,141.256 66.5,139.5 Z"/></g>
<g><path style="opacity:0.322" fill="#a3a3a3" d="M 396.5,141.5 C 393.167,141.5 389.833,141.5 386.5,141.5C 387.694,140.223 389.36,139.556 391.5,139.5C 393.64,139.556 395.306,140.223 396.5,141.5 Z"/></g>
<g><path style="opacity:0.02" fill="#ababab" d="M 170.5,140.5 C 169.448,142.256 167.781,142.923 165.5,142.5C 166.552,140.744 168.219,140.077 170.5,140.5 Z"/></g>
<g><path style="opacity:0.49" fill="#474747" d="M 386.5,141.5 C 389.833,141.5 393.167,141.5 396.5,141.5C 398.048,141.821 398.715,142.821 398.5,144.5C 396.257,143.688 393.924,143.021 391.5,142.5C 389.076,143.021 386.743,143.688 384.5,144.5C 384.285,142.821 384.952,141.821 386.5,141.5 Z"/></g>
<g><path style="opacity:0.345" fill="#a1a1a1" d="M 59.5,141.5 C 59.5,142.5 59.5,143.5 59.5,144.5C 57.8333,144.5 56.1667,144.5 54.5,144.5C 54.5,143.5 54.5,142.5 54.5,141.5C 56.1667,141.5 57.8333,141.5 59.5,141.5 Z"/></g>
<g><path style="opacity:0.322" fill="#626262" d="M 137.5,140.5 C 141.167,141.5 143.5,143.833 144.5,147.5C 141.167,146.167 138.833,143.833 137.5,140.5 Z"/></g>
<g><path style="opacity:0.998" fill="#010101" d="M 398.5,144.5 C 398.5,148.5 398.5,152.5 398.5,156.5C 398.5,158.167 398.5,159.833 398.5,161.5C 397.5,161.5 396.5,161.5 395.5,161.5C 393.553,166.111 391.553,170.777 389.5,175.5C 390.191,177.891 391.191,177.891 392.5,175.5C 393.452,173.955 393.785,172.288 393.5,170.5C 397.012,169.414 399.345,167.081 400.5,163.5C 401.167,163.5 401.833,163.5 402.5,163.5C 405.889,162.39 409.222,161.39 412.5,160.5C 413.167,160.5 413.833,160.5 414.5,160.5C 415.368,162.897 416.035,165.397 416.5,168C 416.035,170.603 415.368,173.103 414.5,175.5C 412.952,175.821 412.285,176.821 412.5,178.5C 410.167,179.833 407.833,181.167 405.5,182.5C 403.857,182.48 402.524,183.147 401.5,184.5C 400.167,186.833 400.167,189.167 401.5,191.5C 402.182,190.757 402.849,190.091 403.5,189.5C 403.833,189.5 404.167,189.5 404.5,189.5C 406.841,189.008 408.841,187.841 410.5,186C 413.905,184.898 416.572,185.732 418.5,188.5C 416.682,192.706 415.349,197.04 414.5,201.5C 414.5,202.5 414.5,203.5 414.5,204.5C 413.167,204.5 412.5,205.167 412.5,206.5C 411.167,206.5 410.5,207.167 410.5,208.5C 407.5,208.833 405.833,210.5 405.5,213.5C 402.833,214.167 402.833,214.833 405.5,215.5C 405.5,216.833 406.167,217.5 407.5,217.5C 409.322,217.831 410.989,218.498 412.5,219.5C 412.285,221.179 412.952,222.179 414.5,222.5C 414.821,224.048 415.821,224.715 417.5,224.5C 417.5,225.833 418.167,226.5 419.5,226.5C 419.285,228.179 419.952,229.179 421.5,229.5C 421.5,230.167 421.5,230.833 421.5,231.5C 423.61,234.479 425.11,237.812 426,241.5C 426.417,240.244 427.25,239.577 428.5,239.5C 428.5,240.167 428.5,240.833 428.5,241.5C 429.502,243.011 430.169,244.678 430.5,246.5C 431.5,246.5 432.5,246.5 433.5,246.5C 433.5,247.167 433.5,247.833 433.5,248.5C 433.534,252.223 434.867,255.223 437.5,257.5C 437.5,259.167 437.5,260.833 437.5,262.5C 437.5,264.167 437.5,265.833 437.5,267.5C 437.5,276.167 437.5,284.833 437.5,293.5C 437.5,296.833 437.5,300.167 437.5,303.5C 437.5,304.833 437.5,306.167 437.5,307.5C 435.744,308.552 435.077,310.219 435.5,312.5C 435.5,313.167 435.5,313.833 435.5,314.5C 434.5,314.5 433.5,314.5 432.5,314.5C 432.447,317.14 431.78,319.64 430.5,322C 430.528,323.07 430.861,323.903 431.5,324.5C 431.5,325.167 431.5,325.833 431.5,326.5C 430.5,326.5 429.5,326.5 428.5,326.5C 428.5,327.5 428.5,328.5 428.5,329.5C 428.5,330.167 428.5,330.833 428.5,331.5C 427.167,331.5 426.5,332.167 426.5,333.5C 426.5,334.5 426.5,335.5 426.5,336.5C 423.665,337.069 421.999,338.736 421.5,341.5C 420.833,342.833 420.167,344.167 419.5,345.5C 417.952,345.821 417.285,346.821 417.5,348.5C 413.833,349.5 411.5,351.833 410.5,355.5C 408.678,355.831 407.011,356.498 405.5,357.5C 404.167,357.5 403.5,358.167 403.5,359.5C 402.833,359.5 402.167,359.5 401.5,359.5C 398.975,360.64 396.308,361.307 393.5,361.5C 392.833,363.5 392.167,365.5 391.5,367.5C 390.833,367.5 390.167,367.5 389.5,367.5C 388.081,366.549 386.415,366.216 384.5,366.5C 384.5,367.5 384.5,368.5 384.5,369.5C 382.219,369.077 380.552,369.744 379.5,371.5C 379.167,371.5 378.833,371.5 378.5,371.5C 376.833,371.5 375.167,371.5 373.5,371.5C 372.5,371.5 371.5,371.5 370.5,371.5C 370.5,372.5 370.5,373.5 370.5,374.5C 369.833,374.5 369.167,374.5 368.5,374.5C 366.359,373.837 364.025,373.503 361.5,373.5C 353.227,374.975 344.893,375.642 336.5,375.5C 336.5,376.5 336.5,377.5 336.5,378.5C 336.5,379.5 336.5,380.5 336.5,381.5C 336.5,382.833 336.5,384.167 336.5,385.5C 335.5,385.5 334.5,385.5 333.5,385.5C 333.542,389.009 332.876,392.342 331.5,395.5C 331.5,396.833 330.833,397.5 329.5,397.5C 300.945,399.117 272.278,400.117 243.5,400.5C 242.147,401.524 241.48,402.857 241.5,404.5C 242.5,404.5 243.5,404.5 244.5,404.5C 244.5,405.833 244.5,407.167 244.5,408.5C 244.5,410.167 244.5,411.833 244.5,413.5C 244.5,414.5 244.5,415.5 244.5,416.5C 250.537,416.171 256.537,416.504 262.5,417.5C 263.728,419.321 265.394,420.321 267.5,420.5C 267.5,425.5 267.5,430.5 267.5,435.5C 267.5,436.167 267.5,436.833 267.5,437.5C 265.5,438.833 263.833,440.5 262.5,442.5C 261.167,442.5 260.5,443.167 260.5,444.5C 259.833,444.5 259.167,444.5 258.5,444.5C 255.167,445.167 251.833,445.833 248.5,446.5C 248.5,447.5 248.5,448.5 248.5,449.5C 246.167,449.5 243.833,449.5 241.5,449.5C 236.833,449.5 232.167,449.5 227.5,449.5C 226.167,449.5 225.5,448.833 225.5,447.5C 225.5,446.5 225.5,445.5 225.5,444.5C 224.5,444.5 223.5,444.5 222.5,444.5C 222.5,443.833 222.5,443.167 222.5,442.5C 222.923,440.219 222.256,438.552 220.5,437.5C 220.5,435.167 220.5,432.833 220.5,430.5C 220.5,428.167 220.5,425.833 220.5,423.5C 221.055,419.988 220.388,416.988 218.5,414.5C 218.5,412.833 218.5,411.167 218.5,409.5C 218.542,405.991 217.876,402.658 216.5,399.5C 199.487,399.167 182.487,399.501 165.5,400.5C 164.147,401.524 163.48,402.857 163.5,404.5C 163.5,405.5 163.5,406.5 163.5,407.5C 163.5,408.167 163.5,408.833 163.5,409.5C 162.167,409.5 161.5,410.167 161.5,411.5C 161.5,412.167 161.5,412.833 161.5,413.5C 160.5,413.5 159.5,413.5 158.5,413.5C 157.475,417.427 156.808,421.427 156.5,425.5C 156.5,426.833 157.167,427.5 158.5,427.5C 158.5,428.5 158.5,429.5 158.5,430.5C 161.076,430.468 163.409,431.135 165.5,432.5C 166.5,432.5 167.5,432.5 168.5,432.5C 168.5,433.833 169.167,434.5 170.5,434.5C 171.865,436.591 172.532,438.924 172.5,441.5C 172.728,446.015 172.062,450.348 170.5,454.5C 170.5,455.833 169.833,456.5 168.5,456.5C 167.5,456.5 166.5,456.5 165.5,456.5C 165.5,457.5 165.5,458.5 165.5,459.5C 163.517,459.157 162.183,459.824 161.5,461.5C 160.833,461.5 160.167,461.5 159.5,461.5C 156.302,460.964 153.635,461.631 151.5,463.5C 150.833,463.5 150.167,463.5 149.5,463.5C 144.167,463.5 138.833,463.5 133.5,463.5C 129.5,463.5 125.5,463.5 121.5,463.5C 120.833,463.5 120.167,463.5 119.5,463.5C 119.179,461.952 118.179,461.285 116.5,461.5C 114.729,454.33 114.062,446.996 114.5,439.5C 114.5,438.833 114.5,438.167 114.5,437.5C 116.256,436.448 116.923,434.781 116.5,432.5C 116.5,431.833 116.5,431.167 116.5,430.5C 117.5,430.5 118.5,430.5 119.5,430.5C 119.5,428.833 119.5,427.167 119.5,425.5C 121.048,425.179 121.715,424.179 121.5,422.5C 121.5,421.833 121.5,421.167 121.5,420.5C 123.256,419.448 123.923,417.781 123.5,415.5C 124.5,415.5 125.5,415.5 126.5,415.5C 127.406,412.564 128.072,409.564 128.5,406.5C 130.344,404.721 131.01,402.388 130.5,399.5C 109.064,400.074 87.7304,399.408 66.5,397.5C 64.8212,397.715 63.8212,397.048 63.5,395.5C 63.2623,392.931 61.929,391.265 59.5,390.5C 59.5,389.833 59.5,389.167 59.5,388.5C 59.5,387.5 59.5,386.5 59.5,385.5C 57.8839,340.406 56.8839,295.406 56.5,250.5C 56.5,249.833 56.5,249.167 56.5,248.5C 56.5,247.833 56.5,247.167 56.5,246.5C 57.5,246.5 58.5,246.5 59.5,246.5C 59.5,244.833 59.5,243.167 59.5,241.5C 59.7377,238.931 61.071,237.265 63.5,236.5C 64.5,236.5 65.5,236.5 66.5,236.5C 66.5,235.5 66.5,234.5 66.5,233.5C 67.8333,233.5 69.1667,233.5 70.5,233.5C 156.735,233.859 243.069,234.859 329.5,236.5C 330.833,236.5 331.5,237.167 331.5,238.5C 332.389,241.278 333.555,243.945 335,246.5C 335.5,280.165 335.667,313.832 335.5,347.5C 338.948,348.099 341.614,347.099 343.5,344.5C 343.833,344.5 344.167,344.5 344.5,344.5C 347.728,345.414 351.061,345.747 354.5,345.5C 354.5,344.5 354.5,343.5 354.5,342.5C 355.833,342.5 357.167,342.5 358.5,342.5C 360.781,342.923 362.448,342.256 363.5,340.5C 364.833,340.5 366.167,340.5 367.5,340.5C 369.167,340.5 370.833,340.5 372.5,340.5C 374.636,339.281 376.969,338.448 379.5,338C 381.692,336.933 383.358,335.433 384.5,333.5C 384.738,330.931 386.071,329.265 388.5,328.5C 391.5,328.167 393.167,326.5 393.5,323.5C 394.833,323.5 395.5,322.833 395.5,321.5C 399.322,320.82 400.989,318.487 400.5,314.5C 402.256,313.448 402.923,311.781 402.5,309.5C 402.5,308.833 402.5,308.167 402.5,307.5C 404.256,306.448 404.923,304.781 404.5,302.5C 404.5,301.833 404.5,301.167 404.5,300.5C 405.5,300.5 406.5,300.5 407.5,300.5C 407.5,298.833 407.5,297.167 407.5,295.5C 407.5,294.5 407.5,293.5 407.5,292.5C 407.5,291.167 407.5,289.833 407.5,288.5C 408.805,286.603 409.471,284.269 409.5,281.5C 409.471,278.731 408.805,276.397 407.5,274.5C 407.5,273.833 407.5,273.167 407.5,272.5C 407.5,270.167 407.5,267.833 407.5,265.5C 406.5,265.5 405.5,265.5 404.5,265.5C 404.5,264.833 404.5,264.167 404.5,263.5C 404.982,262.584 405.315,261.584 405.5,260.5C 404.453,258.944 403.786,257.277 403.5,255.5C 402.5,255.5 401.5,255.5 400.5,255.5C 399.498,253.989 398.831,252.322 398.5,250.5C 396.678,250.169 395.011,249.502 393.5,248.5C 392.345,244.919 390.012,242.586 386.5,241.5C 385.833,241.5 385.167,241.5 384.5,241.5C 384.5,240.5 384.5,239.5 384.5,238.5C 380.964,237.43 377.297,236.763 373.5,236.5C 370.645,236.503 367.978,236.836 365.5,237.5C 364.833,237.5 364.167,237.5 363.5,237.5C 363.715,235.821 363.048,234.821 361.5,234.5C 359.821,234.715 358.821,234.048 358.5,232.5C 358.262,229.931 356.929,228.265 354.5,227.5C 353.167,224.167 351.833,220.833 350.5,217.5C 349.5,217.5 348.5,217.5 347.5,217.5C 347.547,212.087 346.88,206.754 345.5,201.5C 346.537,197.543 347.204,193.543 347.5,189.5C 347.285,187.821 347.952,186.821 349.5,186.5C 352.167,186.5 354.833,186.5 357.5,186.5C 357.833,186.5 358.167,186.5 358.5,186.5C 359.158,187.398 359.824,188.398 360.5,189.5C 361.474,187.257 361.808,184.924 361.5,182.5C 361.5,174.5 361.5,166.5 361.5,158.5C 361.5,156.833 361.5,155.167 361.5,153.5C 361.5,152.833 361.5,152.167 361.5,151.5C 363.048,151.179 363.715,150.179 363.5,148.5C 364.167,148.5 364.833,148.5 365.5,148.5C 367.573,149.138 369.573,150.138 371.5,151.5C 372.498,160.81 372.832,170.143 372.5,179.5C 374.143,179.52 375.476,178.853 376.5,177.5C 377.491,173.555 377.824,169.555 377.5,165.5C 377.5,163.833 377.5,162.167 377.5,160.5C 377.5,159.167 377.5,157.833 377.5,156.5C 379.256,155.448 379.923,153.781 379.5,151.5C 379.5,150.833 379.5,150.167 379.5,149.5C 382.5,149.167 384.167,147.5 384.5,144.5C 386.743,143.688 389.076,143.021 391.5,142.5C 393.924,143.021 396.257,143.688 398.5,144.5 Z M 398.5,161.5 C 399.833,161.5 400.5,162.167 400.5,163.5C 400.5,162.167 399.833,161.5 398.5,161.5 Z M 237.5,293.5 C 238.167,293.5 238.833,293.5 239.5,293.5C 240.833,293.5 241.5,294.167 241.5,295.5C 241.5,296.167 241.5,296.833 241.5,297.5C 240.5,297.5 239.5,297.5 238.5,297.5C 238.5,298.5 238.5,299.5 238.5,300.5C 238.5,305.167 238.5,309.833 238.5,314.5C 238.672,315.492 238.338,316.158 237.5,316.5C 236.833,316.5 236.167,316.5 235.5,316.5C 235.179,314.952 234.179,314.285 232.5,314.5C 231.833,314.5 231.167,314.5 230.5,314.5C 230.167,311.5 228.5,309.833 225.5,309.5C 225.5,308.167 225.5,306.833 225.5,305.5C 226.5,305.5 227.5,305.5 228.5,305.5C 228.468,302.924 229.135,300.591 230.5,298.5C 231.167,298.5 231.833,298.5 232.5,298.5C 235.5,298.167 237.167,296.5 237.5,293.5 Z M 159.5,298.5 C 159.833,298.5 160.167,298.5 160.5,298.5C 161.552,300.256 163.219,300.923 165.5,300.5C 165.5,301.5 165.5,302.5 165.5,303.5C 167.929,303.884 170.263,304.551 172.5,305.5C 174.24,308.265 175.573,311.265 176.5,314.5C 175.979,316.924 175.312,319.257 174.5,321.5C 173.833,321.5 173.167,321.5 172.5,321.5C 171.5,321.5 170.5,321.5 169.5,321.5C 168.167,321.5 167.5,322.167 167.5,323.5C 166.833,323.5 166.167,323.5 165.5,323.5C 164.5,323.5 163.5,323.5 162.5,323.5C 162.5,324.5 162.5,325.5 162.5,326.5C 161.833,326.5 161.167,326.5 160.5,326.5C 159.957,326.44 159.624,326.107 159.5,325.5C 160.853,324.476 161.52,323.143 161.5,321.5C 161.5,320.833 161.5,320.167 161.5,319.5C 162.794,317.952 163.461,315.952 163.5,313.5C 163.461,311.048 162.794,309.048 161.5,307.5C 161.532,304.924 160.865,302.591 159.5,300.5C 159.5,299.833 159.5,299.167 159.5,298.5 Z M 269.5,298.5 C 270.167,298.5 270.833,298.5 271.5,298.5C 271.5,300.5 271.5,302.5 271.5,304.5C 270.833,304.5 270.167,304.5 269.5,304.5C 269.5,302.5 269.5,300.5 269.5,298.5 Z M 130.5,312.5 C 130.077,314.781 130.744,316.448 132.5,317.5C 132.5,318.167 132.5,318.833 132.5,319.5C 132.5,320.5 132.5,321.5 132.5,322.5C 133.5,322.5 134.5,322.5 135.5,322.5C 136.167,323.833 136.833,325.167 137.5,326.5C 136.167,326.5 134.833,326.5 133.5,326.5C 132.833,326.5 132.167,326.5 131.5,326.5C 131.5,325.5 131.5,324.5 131.5,323.5C 130.5,323.5 129.5,323.5 128.5,323.5C 127.167,322.833 125.833,322.167 124.5,321.5C 124.183,318.428 124.516,315.428 125.5,312.5C 126.524,311.147 127.857,310.48 129.5,310.5C 129.34,308.801 129.506,307.134 130,305.5C 130.497,307.81 130.663,310.143 130.5,312.5 Z M 280.5,312.5 C 280.5,313.833 279.833,314.5 278.5,314.5C 278.5,313.167 279.167,312.5 280.5,312.5 Z"/></g>
<g><path style="opacity:0.345" fill="#717171" d="M 163.5,142.5 C 163.5,143.5 163.5,144.5 163.5,145.5C 159.427,145.808 155.427,146.475 151.5,147.5C 151.5,146.5 151.5,145.5 151.5,144.5C 155.427,143.475 159.427,142.808 163.5,142.5 Z"/></g>
<g><path style="opacity:0.165" fill="#b1b1b1" d="M 371.5,148.5 C 369.5,148.5 367.5,148.5 365.5,148.5C 364.833,148.5 364.167,148.5 363.5,148.5C 364.334,147.252 365.667,146.585 367.5,146.5C 369.333,146.585 370.666,147.252 371.5,148.5 Z"/></g>
<g><path style="opacity:0.22" fill="#939393" d="M 144.5,147.5 C 146.167,147.5 147.833,147.5 149.5,147.5C 149.209,148.649 148.376,149.316 147,149.5C 145.624,149.316 144.791,148.649 144.5,147.5 Z"/></g>
<g><path style="opacity:0.325" fill="#636363" d="M 384.5,144.5 C 384.167,147.5 382.5,149.167 379.5,149.5C 379.833,146.5 381.5,144.833 384.5,144.5 Z"/></g>
<g><path style="opacity:0.275" fill="#959595" d="M 52.5,144.5 C 51.4975,146.011 50.8308,147.678 50.5,149.5C 48.6776,149.831 47.0109,150.498 45.5,151.5C 46.5,147.833 48.8333,145.5 52.5,144.5 Z"/></g>
<g><path style="opacity:0.299" fill="#777777" d="M 80.5,141.5 C 81.5,141.5 82.5,141.5 83.5,141.5C 85.5,144.833 87.5,148.167 89.5,151.5C 84.7468,149.747 81.7468,146.413 80.5,141.5 Z"/></g>
<g><path style="opacity:0.157" fill="#bdbdbd" d="M 363.5,148.5 C 363.715,150.179 363.048,151.179 361.5,151.5C 361.285,149.821 361.952,148.821 363.5,148.5 Z"/></g>
<g><path style="opacity:0.351" fill="#4b4b4b" d="M 398.5,144.5 C 399.5,144.5 400.5,144.5 401.5,144.5C 401.5,148.5 401.5,152.5 401.5,156.5C 400.5,156.5 399.5,156.5 398.5,156.5C 398.5,152.5 398.5,148.5 398.5,144.5 Z"/></g>
<g><path style="opacity:0.192" fill="#545454" d="M 89.5,151.5 C 92.5,151.833 94.1667,153.5 94.5,156.5C 94.1667,153.5 92.5,151.833 89.5,151.5 Z"/></g>
<g><path style="opacity:0.031" fill="#dadada" d="M 45.5,153.5 C 45.5,156.167 45.5,158.833 45.5,161.5C 44.5,161.5 43.5,161.5 42.5,161.5C 42.5,158.833 42.5,156.167 42.5,153.5C 43.5,153.5 44.5,153.5 45.5,153.5 Z"/></g>
<g><path style="opacity:0.094" fill="#bcbcbc" d="M 361.5,153.5 C 361.5,155.167 361.5,156.833 361.5,158.5C 360.5,158.5 359.5,158.5 358.5,158.5C 358.5,156.833 358.5,155.167 358.5,153.5C 359.5,153.5 360.5,153.5 361.5,153.5 Z"/></g>
<g><path style="opacity:0.39" fill="#8d8d8d" d="M 379.5,151.5 C 379.923,153.781 379.256,155.448 377.5,156.5C 377.077,154.219 377.744,152.552 379.5,151.5 Z"/></g>
<g><path style="opacity:0.124" fill="#bebebe" d="M 414.5,160.5 C 413.833,160.5 413.167,160.5 412.5,160.5C 409.833,160.5 407.167,160.5 404.5,160.5C 405.694,159.223 407.36,158.556 409.5,158.5C 411.64,158.556 413.306,159.223 414.5,160.5 Z"/></g>
<g><path style="opacity:0.39" fill="#3f3f3f" d="M 402.5,160.5 C 403.167,160.5 403.833,160.5 404.5,160.5C 407.167,160.5 409.833,160.5 412.5,160.5C 409.222,161.39 405.889,162.39 402.5,163.5C 402.5,162.5 402.5,161.5 402.5,160.5 Z"/></g>
<g><path style="opacity:0.024" fill="#c3c3c3" d="M 398.5,156.5 C 399.5,156.5 400.5,156.5 401.5,156.5C 401.232,158.099 401.566,159.432 402.5,160.5C 402.5,161.5 402.5,162.5 402.5,163.5C 401.833,163.5 401.167,163.5 400.5,163.5C 400.5,162.167 399.833,161.5 398.5,161.5C 398.5,159.833 398.5,158.167 398.5,156.5 Z"/></g>
<g><path style="opacity:0.024" fill="#dedede" d="M 103.5,163.5 C 105.179,163.285 106.179,163.952 106.5,165.5C 105.5,165.5 104.5,165.5 103.5,165.5C 103.5,164.833 103.5,164.167 103.5,163.5 Z"/></g>
<g><path style="opacity:1" fill="#a3a3a3" d="M 375.5,160.5 C 376.167,160.5 376.833,160.5 377.5,160.5C 377.5,162.167 377.5,163.833 377.5,165.5C 375.896,168.403 374.896,171.737 374.5,175.5C 372.977,170.233 373.31,165.233 375.5,160.5 Z"/></g>
<g><path style="opacity:1" fill="#9d9d9d" d="M 398.5,161.5 C 398.5,162.833 399.167,163.5 400.5,163.5C 399.345,167.081 397.012,169.414 393.5,170.5C 393.785,172.288 393.452,173.955 392.5,175.5C 391.191,177.891 390.191,177.891 389.5,175.5C 391.553,170.777 393.553,166.111 395.5,161.5C 396.5,161.5 397.5,161.5 398.5,161.5 Z"/></g>
<g><path style="opacity:0.496" fill="#636363" d="M 414.5,160.5 C 415.5,160.5 416.5,160.5 417.5,160.5C 418.413,163.055 419.08,165.721 419.5,168.5C 419.939,172.506 418.273,174.84 414.5,175.5C 415.368,173.103 416.035,170.603 416.5,168C 416.035,165.397 415.368,162.897 414.5,160.5 Z"/></g>
<g><path style="opacity:0.738" fill="#212121" d="M 358.5,158.5 C 359.5,158.5 360.5,158.5 361.5,158.5C 361.5,166.5 361.5,174.5 361.5,182.5C 360.5,182.5 359.5,182.5 358.5,182.5C 358.5,174.5 358.5,166.5 358.5,158.5 Z"/></g>
<g><path style="opacity:0.294" fill="#5e5e5e" d="M 47.5,170.5 C 48.5,170.5 49.5,170.5 50.5,170.5C 50.7845,172.415 50.4511,174.081 49.5,175.5C 47.744,174.448 47.0773,172.781 47.5,170.5 Z"/></g>
<g><path style="opacity:0.6" fill="#5c5c5c" d="M 103.5,165.5 C 104.5,165.5 105.5,165.5 106.5,165.5C 107.637,168.484 108.304,171.651 108.5,175C 108.048,179.233 107.381,183.4 106.5,187.5C 105.5,187.5 104.5,187.5 103.5,187.5C 104.349,183.562 105.016,179.562 105.5,175.5C 105.199,172.039 104.532,168.706 103.5,165.5 Z"/></g>
<g><path style="opacity:0.212" fill="#999999" d="M 414.5,175.5 C 414.715,177.179 414.048,178.179 412.5,178.5C 412.285,176.821 412.952,175.821 414.5,175.5 Z"/></g>
<g><path style="opacity:0.312" fill="#868686" d="M 49.5,177.5 C 50.5,177.5 51.5,177.5 52.5,177.5C 52.5,179.167 52.5,180.833 52.5,182.5C 51.5,182.5 50.5,182.5 49.5,182.5C 49.5,180.833 49.5,179.167 49.5,177.5 Z"/></g>
<g><path style="opacity:1" fill="#373737" d="M 365.5,148.5 C 367.5,148.5 369.5,148.5 371.5,148.5C 372.859,149.007 373.859,150.007 374.5,151.5C 375.484,154.428 375.817,157.428 375.5,160.5C 373.31,165.233 372.977,170.233 374.5,175.5C 374.896,171.737 375.896,168.403 377.5,165.5C 377.824,169.555 377.491,173.555 376.5,177.5C 375.476,178.853 374.143,179.52 372.5,179.5C 372.832,170.143 372.498,160.81 371.5,151.5C 369.573,150.138 367.573,149.138 365.5,148.5 Z"/></g>
<g><path style="opacity:0.669" fill="#2e2e2e" d="M 52.5,182.5 C 54.4698,190.769 55.1364,199.435 54.5,208.5C 53.8333,208.5 53.1667,208.5 52.5,208.5C 52.5,199.833 52.5,191.167 52.5,182.5 Z"/></g>
<g><path style="opacity:0.733" fill="#262626" d="M 151.5,182.5 C 163.833,182.5 176.167,182.5 188.5,182.5C 188.5,183.833 187.833,184.5 186.5,184.5C 174.833,184.5 163.167,184.5 151.5,184.5C 151.5,183.833 151.5,183.167 151.5,182.5 Z"/></g>
<g><path style="opacity:0.711" fill="#2d2d2d" d="M 267.5,187.5 C 266.596,186.791 266.263,185.791 266.5,184.5C 255.833,184.5 245.167,184.5 234.5,184.5C 245.785,182.522 257.452,181.855 269.5,182.5C 269.923,184.781 269.256,186.448 267.5,187.5 Z"/></g>
<g><path style="opacity:0.006" fill="#fefffe" d="M 314.5,182.5 C 314.5,183.833 313.833,184.5 312.5,184.5C 312.5,183.167 313.167,182.5 314.5,182.5 Z"/></g>
<g><path style="opacity:0.994" fill="#030303" d="M 151.5,184.5 C 163.167,184.5 174.833,184.5 186.5,184.5C 186.5,186.167 186.5,187.833 186.5,189.5C 186.5,190.5 186.5,191.5 186.5,192.5C 185.167,192.5 184.5,193.167 184.5,194.5C 183.5,194.5 182.5,194.5 181.5,194.5C 181.116,196.929 180.449,199.263 179.5,201.5C 179.5,202.167 179.5,202.833 179.5,203.5C 179.5,204.5 179.5,205.5 179.5,206.5C 178.167,206.5 177.5,207.167 177.5,208.5C 176.5,208.5 175.5,208.5 174.5,208.5C 173.551,210.737 172.884,213.071 172.5,215.5C 161.167,215.5 149.833,215.5 138.5,215.5C 139.138,211.243 140.471,207.243 142.5,203.5C 142.5,202.833 142.5,202.167 142.5,201.5C 144.256,200.448 144.923,198.781 144.5,196.5C 145.5,196.5 146.5,196.5 147.5,196.5C 147.468,193.924 148.135,191.591 149.5,189.5C 149.831,187.678 150.498,186.011 151.5,184.5 Z"/></g>
<g><path style="opacity:0.286" fill="#959595" d="M 357.5,186.5 C 354.833,186.5 352.167,186.5 349.5,186.5C 350.334,185.252 351.667,184.585 353.5,184.5C 355.333,184.585 356.666,185.252 357.5,186.5 Z"/></g>
<g><path style="opacity:0.524" fill="#3b3b3b" d="M 405.5,182.5 C 404.551,184.737 403.884,187.071 403.5,189.5C 402.849,190.091 402.182,190.757 401.5,191.5C 400.167,189.167 400.167,186.833 401.5,184.5C 402.524,183.147 403.857,182.48 405.5,182.5 Z"/></g>
<g><path style="opacity:0.392" fill="#868686" d="M 151.5,182.5 C 151.5,183.167 151.5,183.833 151.5,184.5C 150.498,186.011 149.831,187.678 149.5,189.5C 148.5,189.5 147.5,189.5 146.5,189.5C 147.449,187.263 148.116,184.929 148.5,182.5C 149.5,182.5 150.5,182.5 151.5,182.5 Z"/></g>
<g><path style="opacity:0.592" fill="#7b7b7b" d="M 188.5,182.5 C 189.5,182.5 190.5,182.5 191.5,182.5C 190.551,184.737 189.884,187.071 189.5,189.5C 188.5,189.5 187.5,189.5 186.5,189.5C 186.5,187.833 186.5,186.167 186.5,184.5C 187.833,184.5 188.5,183.833 188.5,182.5 Z"/></g>
<g><path style="opacity:0.992" fill="#030303" d="M 234.5,184.5 C 245.167,184.5 255.833,184.5 266.5,184.5C 266.263,185.791 266.596,186.791 267.5,187.5C 267.5,188.167 267.5,188.833 267.5,189.5C 266.5,189.5 265.5,189.5 264.5,189.5C 264.263,190.791 264.596,191.791 265.5,192.5C 265.5,193.167 265.5,193.833 265.5,194.5C 264.5,194.5 263.5,194.5 262.5,194.5C 262.5,195.5 262.5,196.5 262.5,197.5C 262.5,198.167 262.5,198.833 262.5,199.5C 260.857,199.48 259.524,200.147 258.5,201.5C 257.593,203.939 256.593,206.272 255.5,208.5C 255.5,209.5 255.5,210.5 255.5,211.5C 255.5,212.167 255.5,212.833 255.5,213.5C 254.167,213.5 253.5,214.167 253.5,215.5C 242.5,215.5 231.5,215.5 220.5,215.5C 220.5,214.5 220.5,213.5 220.5,212.5C 220.5,211.833 220.5,211.167 220.5,210.5C 223.957,210.04 225.623,208.04 225.5,204.5C 227.109,204.906 228.443,204.906 229.5,204.5C 228.921,200.904 228.921,197.237 229.5,193.5C 229.5,192.833 229.5,192.167 229.5,191.5C 233.322,190.82 234.989,188.487 234.5,184.5 Z"/></g>
<g><path style="opacity:0.996" fill="#030303" d="M 333.5,208.5 C 331.952,208.821 331.285,209.821 331.5,211.5C 330.167,211.5 329.5,212.167 329.5,213.5C 328.167,213.5 327.5,214.167 327.5,215.5C 326.833,215.5 326.167,215.5 325.5,215.5C 317.5,215.5 309.5,215.5 301.5,215.5C 301.5,213.833 301.5,212.167 301.5,210.5C 303.256,209.448 303.923,207.781 303.5,205.5C 305.176,204.817 305.843,203.483 305.5,201.5C 306.5,201.5 307.5,201.5 308.5,201.5C 308.5,200.5 308.5,199.5 308.5,198.5C 308.5,197.833 308.5,197.167 308.5,196.5C 310.256,195.448 310.923,193.781 310.5,191.5C 312.176,190.817 312.843,189.483 312.5,187.5C 313.5,187.5 314.5,187.5 315.5,187.5C 315.5,186.5 315.5,185.5 315.5,184.5C 321.5,184.5 327.5,184.5 333.5,184.5C 333.5,192.5 333.5,200.5 333.5,208.5 Z"/></g>
<g><path style="opacity:0.199" fill="#909090" d="M 358.5,182.5 C 359.5,182.5 360.5,182.5 361.5,182.5C 361.808,184.924 361.474,187.257 360.5,189.5C 359.824,188.398 359.158,187.398 358.5,186.5C 358.5,185.167 358.5,183.833 358.5,182.5 Z"/></g>
<g><path style="opacity:0.519" fill="#535353" d="M 234.5,184.5 C 234.989,188.487 233.322,190.82 229.5,191.5C 230.865,189.409 231.532,187.076 231.5,184.5C 232.5,184.5 233.5,184.5 234.5,184.5 Z"/></g>
<g><path style="opacity:0.644" fill="#232323" d="M 314.5,182.5 C 321.833,182.5 329.167,182.5 336.5,182.5C 336.5,190.5 336.5,198.5 336.5,206.5C 335.167,206.5 334.5,207.167 334.5,208.5C 334.167,208.5 333.833,208.5 333.5,208.5C 333.5,200.5 333.5,192.5 333.5,184.5C 327.5,184.5 321.5,184.5 315.5,184.5C 315.5,185.5 315.5,186.5 315.5,187.5C 314.5,187.5 313.5,187.5 312.5,187.5C 312.5,187.167 312.5,186.833 312.5,186.5C 312.5,185.833 312.5,185.167 312.5,184.5C 313.833,184.5 314.5,183.833 314.5,182.5 Z"/></g>
<g><path style="opacity:0.067" fill="#d9d9d9" d="M 419.5,186.5 C 422.167,187.5 422.167,188.5 419.5,189.5C 419.5,188.5 419.5,187.5 419.5,186.5 Z"/></g>
<g><path style="opacity:0.271" fill="#777777" d="M 267.5,189.5 C 267.715,191.179 267.048,192.179 265.5,192.5C 264.596,191.791 264.263,190.791 264.5,189.5C 265.5,189.5 266.5,189.5 267.5,189.5 Z"/></g>
<g><path style="opacity:0.392" fill="#8f8f8f" d="M 312.5,186.5 C 312.5,186.833 312.5,187.167 312.5,187.5C 312.843,189.483 312.176,190.817 310.5,191.5C 310.077,189.219 310.744,187.552 312.5,186.5 Z"/></g>
<g><path style="opacity:0.384" fill="#7a7a7a" d="M 103.5,189.5 C 102.794,192.628 101.461,195.294 99.5,197.5C 98.7745,193.657 100.108,190.99 103.5,189.5 Z"/></g>
<g><path style="opacity:0.02" fill="#d4d4d4" d="M 186.5,192.5 C 186.5,193.833 185.833,194.5 184.5,194.5C 184.5,193.167 185.167,192.5 186.5,192.5 Z"/></g>
<g><path style="opacity:0.745" fill="#404040" d="M 146.5,189.5 C 147.5,189.5 148.5,189.5 149.5,189.5C 148.135,191.591 147.468,193.924 147.5,196.5C 146.5,196.5 145.5,196.5 144.5,196.5C 144.468,193.924 145.135,191.591 146.5,189.5 Z"/></g>
<g><path style="opacity:0.261" fill="#828282" d="M 265.5,194.5 C 265.5,196.5 264.5,197.5 262.5,197.5C 262.5,196.5 262.5,195.5 262.5,194.5C 263.5,194.5 264.5,194.5 265.5,194.5 Z"/></g>
<g><path style="opacity:0.408" fill="#8e8e8e" d="M 310.5,191.5 C 310.923,193.781 310.256,195.448 308.5,196.5C 308.077,194.219 308.744,192.552 310.5,191.5 Z"/></g>
<g><path style="opacity:0.765" fill="#464646" d="M 347.5,189.5 C 347.204,193.543 346.537,197.543 345.5,201.5C 346.88,206.754 347.547,212.087 347.5,217.5C 348.5,217.5 349.5,217.5 350.5,217.5C 351.833,220.833 353.167,224.167 354.5,227.5C 352.007,227.024 350.007,225.69 348.5,223.5C 347.912,221.089 346.745,219.089 345,217.5C 344.501,213.848 344.335,210.182 344.5,206.5C 344.5,203.167 344.5,199.833 344.5,196.5C 344.5,194.167 344.5,191.833 344.5,189.5C 345.5,189.5 346.5,189.5 347.5,189.5 Z"/></g>
<g><path style="opacity:0.656" fill="#414141" d="M 419.5,186.5 C 419.5,187.5 419.5,188.5 419.5,189.5C 419.466,193.63 418.799,197.63 417.5,201.5C 416.5,201.5 415.5,201.5 414.5,201.5C 415.349,197.04 416.682,192.706 418.5,188.5C 416.572,185.732 413.905,184.898 410.5,186C 408.841,187.841 406.841,189.008 404.5,189.5C 404.5,188.5 404.5,187.5 404.5,186.5C 406.606,186.321 408.272,185.321 409.5,183.5C 412.768,182.513 416.102,182.18 419.5,182.5C 419.5,183.833 419.5,185.167 419.5,186.5 Z"/></g>
<g><path style="opacity:0.129" fill="#545454" d="M 184.5,194.5 C 184.5,195.5 184.5,196.5 184.5,197.5C 183.167,197.5 182.5,198.167 182.5,199.5C 182.672,200.492 182.338,201.158 181.5,201.5C 180.833,201.5 180.167,201.5 179.5,201.5C 180.449,199.263 181.116,196.929 181.5,194.5C 182.5,194.5 183.5,194.5 184.5,194.5 Z"/></g>
<g><path style="opacity:0.016" fill="#d1d1d1" d="M 184.5,197.5 C 184.5,198.833 183.833,199.5 182.5,199.5C 182.5,198.167 183.167,197.5 184.5,197.5 Z"/></g>
<g><path style="opacity:0.261" fill="#818181" d="M 308.5,198.5 C 308.5,199.5 308.5,200.5 308.5,201.5C 307.5,201.5 306.5,201.5 305.5,201.5C 305.843,203.483 305.176,204.817 303.5,205.5C 303.011,201.513 304.678,199.18 308.5,198.5 Z"/></g>
<g><path style="opacity:0.163" fill="#b3b3b3" d="M 99.5,199.5 C 99.1788,201.048 98.1788,201.715 96.5,201.5C 96.8212,199.952 97.8212,199.285 99.5,199.5 Z"/></g>
<g><path style="opacity:0.6" fill="#666666" d="M 144.5,196.5 C 144.923,198.781 144.256,200.448 142.5,201.5C 142.5,201.167 142.5,200.833 142.5,200.5C 142.157,198.517 142.824,197.183 144.5,196.5 Z"/></g>
<g><path style="opacity:0.565" fill="#444444" d="M 262.5,199.5 C 261.167,202.5 259.833,205.5 258.5,208.5C 257.5,208.5 256.5,208.5 255.5,208.5C 256.593,206.272 257.593,203.939 258.5,201.5C 259.524,200.147 260.857,199.48 262.5,199.5 Z"/></g>
<g><path style="opacity:0.094" fill="#cecece" d="M 344.5,196.5 C 344.5,199.833 344.5,203.167 344.5,206.5C 343.223,205.306 342.556,203.64 342.5,201.5C 342.556,199.36 343.223,197.694 344.5,196.5 Z"/></g>
<g><path style="opacity:0.141" fill="#c8c8c8" d="M 142.5,200.5 C 142.5,200.833 142.5,201.167 142.5,201.5C 142.5,202.167 142.5,202.833 142.5,203.5C 141.5,203.5 140.5,203.5 139.5,203.5C 139.5,202.5 139.5,201.5 139.5,200.5C 140.5,200.5 141.5,200.5 142.5,200.5 Z"/></g>
<g><path style="opacity:0.008" fill="#fefffe" d="M 179.5,201.5 C 180.167,201.5 180.833,201.5 181.5,201.5C 181.5,202.833 180.833,203.5 179.5,203.5C 179.5,202.833 179.5,202.167 179.5,201.5 Z"/></g>
<g><path style="opacity:0.932" fill="#343434" d="M 229.5,193.5 C 228.921,197.237 228.921,200.904 229.5,204.5C 228.443,204.906 227.109,204.906 225.5,204.5C 225.623,208.04 223.957,210.04 220.5,210.5C 221.449,208.263 222.116,205.929 222.5,203.5C 223.5,203.5 224.5,203.5 225.5,203.5C 225.741,199.563 227.074,196.23 229.5,193.5 Z"/></g>
<g><path style="opacity:0.138" fill="#a0a0a0" d="M 94.5,203.5 C 95.1667,203.5 95.8333,203.5 96.5,203.5C 96.7148,205.179 96.0481,206.179 94.5,206.5C 94.5,205.5 94.5,204.5 94.5,203.5 Z"/></g>
<g><path style="opacity:0.102" fill="#a8a8a8" d="M 414.5,204.5 C 414.5,205.833 413.833,206.5 412.5,206.5C 412.5,205.167 413.167,204.5 414.5,204.5 Z"/></g>
<g><path style="opacity:0.02" fill="#cacaca" d="M 179.5,206.5 C 179.5,207.833 178.833,208.5 177.5,208.5C 177.5,207.167 178.167,206.5 179.5,206.5 Z"/></g>
<g><path style="opacity:0.18" fill="#8e8e8e" d="M 412.5,206.5 C 412.5,207.833 411.833,208.5 410.5,208.5C 410.5,207.167 411.167,206.5 412.5,206.5 Z"/></g>
<g><path style="opacity:0.035" fill="#d5d5d5" d="M 336.5,206.5 C 336.5,207.833 335.833,208.5 334.5,208.5C 334.5,207.167 335.167,206.5 336.5,206.5 Z"/></g>
<g><path style="opacity:0.039" fill="#d7d7d7" d="M 52.5,208.5 C 53.1667,208.5 53.8333,208.5 54.5,208.5C 54.5,209.167 54.5,209.833 54.5,210.5C 54.5,210.833 54.5,211.167 54.5,211.5C 52.9519,211.179 52.2852,210.179 52.5,208.5 Z"/></g>
<g><path style="opacity:0.275" fill="#3f3f3f" d="M 94.5,203.5 C 94.5,204.5 94.5,205.5 94.5,206.5C 94.5,207.167 94.5,207.833 94.5,208.5C 92.9519,208.821 92.2852,209.821 92.5,211.5C 92.5,212.167 92.5,212.833 92.5,213.5C 91.5,213.5 90.5,213.5 89.5,213.5C 90.4069,209.72 92.0735,206.386 94.5,203.5 Z"/></g>
<g><path style="opacity:0.047" fill="#d8d8d8" d="M 94.5,208.5 C 94.7148,210.179 94.0481,211.179 92.5,211.5C 92.2852,209.821 92.9519,208.821 94.5,208.5 Z"/></g>
<g><path style="opacity:0.205" fill="#979797" d="M 255.5,208.5 C 256.5,208.5 257.5,208.5 258.5,208.5C 258.5,209.5 258.5,210.5 258.5,211.5C 257.5,211.5 256.5,211.5 255.5,211.5C 255.5,210.5 255.5,209.5 255.5,208.5 Z"/></g>
<g><path style="opacity:0.478" fill="#848484" d="M 303.5,205.5 C 303.923,207.781 303.256,209.448 301.5,210.5C 301.077,208.219 301.744,206.552 303.5,205.5 Z"/></g>
<g><path style="opacity:0.141" fill="#9f9f9f" d="M 333.5,208.5 C 333.833,208.5 334.167,208.5 334.5,208.5C 334.5,209.5 334.5,210.5 334.5,211.5C 333.5,211.5 332.5,211.5 331.5,211.5C 331.285,209.821 331.952,208.821 333.5,208.5 Z"/></g>
<g><path style="opacity:0.082" fill="#828282" d="M 410.5,208.5 C 410.5,209.5 410.5,210.5 410.5,211.5C 408.678,211.831 407.011,212.498 405.5,213.5C 405.833,210.5 407.5,208.833 410.5,208.5 Z"/></g>
<g><path style="opacity:0.549" fill="#535353" d="M 177.5,208.5 C 176.551,210.737 175.884,213.071 175.5,215.5C 174.5,215.5 173.5,215.5 172.5,215.5C 172.884,213.071 173.551,210.737 174.5,208.5C 175.5,208.5 176.5,208.5 177.5,208.5 Z"/></g>
<g><path style="opacity:0.282" fill="#787878" d="M 54.5,210.5 C 55.5,210.5 56.5,210.5 57.5,210.5C 57.8308,212.322 58.4975,213.989 59.5,215.5C 56.9315,215.262 55.2648,213.929 54.5,211.5C 54.5,211.167 54.5,210.833 54.5,210.5 Z"/></g>
<g><path style="opacity:0.816" fill="#3a3a3a" d="M 139.5,203.5 C 140.5,203.5 141.5,203.5 142.5,203.5C 140.471,207.243 139.138,211.243 138.5,215.5C 137.549,214.081 137.216,212.415 137.5,210.5C 137.468,207.924 138.135,205.591 139.5,203.5 Z"/></g>
<g><path style="opacity:0.137" fill="#a2a2a2" d="M 331.5,211.5 C 331.5,212.833 330.833,213.5 329.5,213.5C 329.5,212.167 330.167,211.5 331.5,211.5 Z"/></g>
<g><path style="opacity:0.118" fill="#bfbfbf" d="M 89.5,213.5 C 90.5,213.5 91.5,213.5 92.5,213.5C 92.1788,215.048 91.1788,215.715 89.5,215.5C 89.5,214.833 89.5,214.167 89.5,213.5 Z"/></g>
<g><path style="opacity:0.265" fill="#969696" d="M 255.5,213.5 C 255.5,214.833 254.833,215.5 253.5,215.5C 253.5,214.167 254.167,213.5 255.5,213.5 Z"/></g>
<g><path style="opacity:0.082" fill="#b8b8b8" d="M 329.5,213.5 C 329.5,214.833 328.833,215.5 327.5,215.5C 327.5,214.167 328.167,213.5 329.5,213.5 Z"/></g>
<g><path style="opacity:0.247" fill="#979797" d="M 405.5,213.5 C 405.5,214.167 405.5,214.833 405.5,215.5C 402.833,214.833 402.833,214.167 405.5,213.5 Z"/></g>
<g><path style="opacity:0.332" fill="#929292" d="M 61.5,215.5 C 70.8333,215.5 80.1667,215.5 89.5,215.5C 89.5,216.5 89.5,217.5 89.5,218.5C 80.1667,218.5 70.8333,218.5 61.5,218.5C 61.5,217.5 61.5,216.5 61.5,215.5 Z"/></g>
<g><path style="opacity:0.353" fill="#818181" d="M 137.5,210.5 C 137.216,212.415 137.549,214.081 138.5,215.5C 149.833,215.5 161.167,215.5 172.5,215.5C 172.5,216.5 172.5,217.5 172.5,218.5C 160.167,218.5 147.833,218.5 135.5,218.5C 134.964,215.302 135.631,212.635 137.5,210.5 Z"/></g>
<g><path style="opacity:0.361" fill="#858585" d="M 220.5,212.5 C 220.5,213.5 220.5,214.5 220.5,215.5C 231.5,215.5 242.5,215.5 253.5,215.5C 253.5,216.5 253.5,217.5 253.5,218.5C 241.833,218.5 230.167,218.5 218.5,218.5C 218.025,215.918 218.692,213.918 220.5,212.5 Z"/></g>
<g><path style="opacity:0.35" fill="#8b8b8b" d="M 301.5,210.5 C 301.5,212.167 301.5,213.833 301.5,215.5C 309.5,215.5 317.5,215.5 325.5,215.5C 325.5,216.5 325.5,217.5 325.5,218.5C 316.5,218.5 307.5,218.5 298.5,218.5C 298.5,215.833 298.5,213.167 298.5,210.5C 299.5,210.5 300.5,210.5 301.5,210.5 Z"/></g>
<g><path style="opacity:0.22" fill="#a7a8a7" d="M 405.5,215.5 C 406.833,215.5 407.5,216.167 407.5,217.5C 407.5,216.167 406.833,215.5 405.5,215.5 Z"/></g>
<g><path style="opacity:0.007" fill="#fefffe" d="M 412.5,219.5 C 414.048,219.821 414.715,220.821 414.5,222.5C 412.952,222.179 412.285,221.179 412.5,219.5 Z"/></g>
<g><path style="opacity:0.086" fill="#c2c2c2" d="M 417.5,224.5 C 418.833,224.5 419.5,225.167 419.5,226.5C 419.5,225.167 418.833,224.5 417.5,224.5 Z"/></g>
<g><path style="opacity:0.055" fill="#c7c7c7" d="M 419.5,226.5 C 421.048,226.821 421.715,227.821 421.5,229.5C 419.952,229.179 419.285,228.179 419.5,226.5 Z"/></g>
<g><path style="opacity:0.488" fill="#505050" d="M 354.5,227.5 C 356.929,228.265 358.262,229.931 358.5,232.5C 356.071,231.735 354.738,230.069 354.5,227.5 Z"/></g>
<g><path style="opacity:0.029" fill="#e5e5e5" d="M 421.5,229.5 C 423.179,229.285 424.179,229.952 424.5,231.5C 423.5,231.5 422.5,231.5 421.5,231.5C 421.5,230.833 421.5,230.167 421.5,229.5 Z"/></g>
<g><path style="opacity:0.123" fill="#b6b6b6" d="M 325.5,232.5 C 240.571,233.497 155.571,233.83 70.5,233.5C 112.661,232.167 155.161,231.5 198,231.5C 240.668,231.5 283.168,231.833 325.5,232.5 Z"/></g>
<g><path style="opacity:0.631" fill="#444444" d="M 421.5,231.5 C 422.5,231.5 423.5,231.5 424.5,231.5C 425.833,233.833 427.167,236.167 428.5,238.5C 428.5,238.833 428.5,239.167 428.5,239.5C 427.25,239.577 426.417,240.244 426,241.5C 425.11,237.812 423.61,234.479 421.5,231.5 Z"/></g>
<g><path style="opacity:0.153" fill="#9c9c9c" d="M 66.5,233.5 C 66.5,234.5 66.5,235.5 66.5,236.5C 65.5,236.5 64.5,236.5 63.5,236.5C 63.5,235.5 63.5,234.5 63.5,233.5C 64.5,233.5 65.5,233.5 66.5,233.5 Z"/></g>
<g><path style="opacity:0.266" fill="#5f5f5f" d="M 325.5,232.5 C 326.568,233.434 327.901,233.768 329.5,233.5C 329.5,234.5 329.5,235.5 329.5,236.5C 243.069,234.859 156.735,233.859 70.5,233.5C 155.571,233.83 240.571,233.497 325.5,232.5 Z"/></g>
<g><path style="opacity:0.212" fill="#999999" d="M 361.5,234.5 C 363.048,234.821 363.715,235.821 363.5,237.5C 361.952,237.179 361.285,236.179 361.5,234.5 Z"/></g>
<g><path style="opacity:0.28" fill="#a6a6a6" d="M 363.5,237.5 C 364.167,237.5 364.833,237.5 365.5,237.5C 367.179,237.285 368.179,237.952 368.5,239.5C 366.219,239.923 364.552,239.256 363.5,237.5 Z"/></g>
<g><path style="opacity:0.574" fill="#434343" d="M 365.5,237.5 C 367.978,236.836 370.645,236.503 373.5,236.5C 377.297,236.763 380.964,237.43 384.5,238.5C 384.5,239.5 384.5,240.5 384.5,241.5C 379.343,239.836 374.01,239.17 368.5,239.5C 368.179,237.952 367.179,237.285 365.5,237.5 Z"/></g>
<g><path style="opacity:0.016" fill="#cecece" d="M 428.5,238.5 C 429.492,238.328 430.158,238.662 430.5,239.5C 430.5,240.833 429.833,241.5 428.5,241.5C 428.5,240.833 428.5,240.167 428.5,239.5C 428.5,239.167 428.5,238.833 428.5,238.5 Z"/></g>
<g><path style="opacity:0.024" fill="#d3d4d3" d="M 384.5,241.5 C 385.167,241.5 385.833,241.5 386.5,241.5C 386.5,242.833 385.833,243.5 384.5,243.5C 384.5,242.833 384.5,242.167 384.5,241.5 Z"/></g>
<g><path style="opacity:0.449" fill="#6a6a6a" d="M 386.5,241.5 C 390.012,242.586 392.345,244.919 393.5,248.5C 390.485,246.808 387.485,245.141 384.5,243.5C 385.833,243.5 386.5,242.833 386.5,241.5 Z"/></g>
<g><path style="opacity:0.386" fill="#757575" d="M 59.5,241.5 C 59.5,243.167 59.5,244.833 59.5,246.5C 58.5,246.5 57.5,246.5 56.5,246.5C 56.5,244.833 56.5,243.167 56.5,241.5C 57.5,241.5 58.5,241.5 59.5,241.5 Z"/></g>
<g><path style="opacity:0.114" fill="#727272" d="M 430.5,239.5 C 431.744,241.663 432.744,243.997 433.5,246.5C 432.5,246.5 431.5,246.5 430.5,246.5C 430.169,244.678 429.502,243.011 428.5,241.5C 429.833,241.5 430.5,240.833 430.5,239.5 Z"/></g>
<g><path style="opacity:0.169" fill="#b1b1b1" d="M 336.5,245.5 C 338.493,278.15 339.16,311.15 338.5,344.5C 338.44,345.043 338.107,345.376 337.5,345.5C 336.5,312.173 336.167,278.84 336.5,245.5 Z"/></g>
<g><path style="opacity:0.691" fill="#191919" d="M 331.5,238.5 C 332.5,238.5 333.5,238.5 334.5,238.5C 335.449,240.737 336.116,243.071 336.5,245.5C 336.167,278.84 336.5,312.173 337.5,345.5C 338.107,345.376 338.44,345.043 338.5,344.5C 340.167,344.5 341.833,344.5 343.5,344.5C 341.614,347.099 338.948,348.099 335.5,347.5C 335.667,313.832 335.5,280.165 335,246.5C 333.555,243.945 332.389,241.278 331.5,238.5 Z"/></g>
<g><path style="opacity:0.167" fill="#949494" d="M 393.5,248.5 C 395.011,249.502 396.678,250.169 398.5,250.5C 398.831,252.322 399.498,253.989 400.5,255.5C 400.5,255.833 400.5,256.167 400.5,256.5C 398.272,255.287 396.272,253.62 394.5,251.5C 393.614,250.675 393.281,249.675 393.5,248.5 Z"/></g>
<g><path style="opacity:0.438" fill="#434343" d="M 56.5,250.5 C 56.8839,295.406 57.8839,340.406 59.5,385.5C 58.5,385.5 57.5,385.5 56.5,385.5C 56.5,384.167 56.5,382.833 56.5,381.5C 56.5,337.833 56.5,294.167 56.5,250.5 Z"/></g>
<g><path style="opacity:0.203" fill="#a1a1a1" d="M 56.5,248.5 C 56.5,249.167 56.5,249.833 56.5,250.5C 56.5,294.167 56.5,337.833 56.5,381.5C 55.1669,359.677 54.5003,337.51 54.5,315C 54.5003,292.49 55.1669,270.323 56.5,248.5 Z"/></g>
<g><path style="opacity:0.267" fill="#9f9f9f" d="M 433.5,248.5 C 436.133,250.777 437.466,253.777 437.5,257.5C 434.867,255.223 433.534,252.223 433.5,248.5 Z"/></g>
<g><path style="opacity:0.573" fill="#404040" d="M 400.5,255.5 C 401.5,255.5 402.5,255.5 403.5,255.5C 403.786,257.277 404.453,258.944 405.5,260.5C 405.315,261.584 404.982,262.584 404.5,263.5C 402.761,261.528 401.428,259.195 400.5,256.5C 400.5,256.167 400.5,255.833 400.5,255.5 Z"/></g>
<g><path style="opacity:0.08" fill="#c3c3c3" d="M 437.5,262.5 C 438.5,262.5 439.5,262.5 440.5,262.5C 440.5,264.167 440.5,265.833 440.5,267.5C 439.5,267.5 438.5,267.5 437.5,267.5C 437.5,265.833 437.5,264.167 437.5,262.5 Z"/></g>
<g><path style="opacity:0.086" fill="#a4a4a4" d="M 404.5,265.5 C 405.5,265.5 406.5,265.5 407.5,265.5C 407.5,267.833 407.5,270.167 407.5,272.5C 406.5,272.5 405.5,272.5 404.5,272.5C 404.5,270.167 404.5,267.833 404.5,265.5 Z"/></g>
<g><path style="opacity:0.421" fill="#646464" d="M 407.5,274.5 C 408.805,276.397 409.471,278.731 409.5,281.5C 409.471,284.269 408.805,286.603 407.5,288.5C 407.5,283.833 407.5,279.167 407.5,274.5 Z"/></g>
<g><path style="opacity:0.636" fill="#2c2c2c" d="M 437.5,267.5 C 438.5,267.5 439.5,267.5 440.5,267.5C 440.5,276.167 440.5,284.833 440.5,293.5C 439.5,293.5 438.5,293.5 437.5,293.5C 437.5,284.833 437.5,276.167 437.5,267.5 Z"/></g>
<g><path style="opacity:1" fill="#777777" d="M 241.5,295.5 C 241.5,294.167 240.833,293.5 239.5,293.5C 239.821,291.952 240.821,291.285 242.5,291.5C 243.507,291.548 243.84,290.548 243.5,288.5C 245.167,288.5 246.833,288.5 248.5,288.5C 247.414,292.012 245.081,294.345 241.5,295.5 Z"/></g>
<g><path style="opacity:0.006" fill="#fefffe" d="M 407.5,292.5 C 407.5,293.5 407.5,294.5 407.5,295.5C 406.5,295.5 405.5,295.5 404.5,295.5C 404.5,293.5 405.5,292.5 407.5,292.5 Z"/></g>
<g><path style="opacity:0.42" fill="#4a4a4a" d="M 160.5,298.5 C 160.167,298.5 159.833,298.5 159.5,298.5C 158.849,297.909 158.182,297.243 157.5,296.5C 156.702,296.957 156.369,297.624 156.5,298.5C 155.5,298.5 154.5,298.5 153.5,298.5C 153.5,297.5 153.5,296.5 153.5,295.5C 155.833,295.5 158.167,295.5 160.5,295.5C 160.5,296.5 160.5,297.5 160.5,298.5 Z"/></g>
<g><path style="opacity:0.057" fill="#999999" d="M 237.5,293.5 C 237.167,296.5 235.5,298.167 232.5,298.5C 233.502,296.989 234.169,295.322 234.5,293.5C 235.5,293.5 236.5,293.5 237.5,293.5 Z"/></g>
<g><path style="opacity:0.05" fill="#d2d2d2" d="M 241.5,297.5 C 241.5,298.5 241.5,299.5 241.5,300.5C 240.5,300.5 239.5,300.5 238.5,300.5C 238.5,299.5 238.5,298.5 238.5,297.5C 239.5,297.5 240.5,297.5 241.5,297.5 Z"/></g>
<g><path style="opacity:0.165" fill="#b4b4b4" d="M 159.5,298.5 C 159.5,299.167 159.5,299.833 159.5,300.5C 157.821,300.715 156.821,300.048 156.5,298.5C 156.369,297.624 156.702,296.957 157.5,296.5C 158.182,297.243 158.849,297.909 159.5,298.5 Z"/></g>
<g><path style="opacity:0.553" fill="#787878" d="M 160.5,298.5 C 162.781,298.077 164.448,298.744 165.5,300.5C 163.219,300.923 161.552,300.256 160.5,298.5 Z"/></g>
<g><path style="opacity:0.797" fill="#f4f4f4" d="M 276.5,300.5 C 279.387,303.929 280.72,307.929 280.5,312.5C 279.167,312.5 278.5,313.167 278.5,314.5C 278.5,314.833 278.5,315.167 278.5,315.5C 277.508,315.328 276.842,315.662 276.5,316.5C 275.626,318.69 273.959,319.69 271.5,319.5C 270.167,319.5 268.833,319.5 267.5,319.5C 267.5,317.833 267.5,316.167 267.5,314.5C 269.926,311.77 271.259,308.437 271.5,304.5C 271.5,302.5 271.5,300.5 271.5,298.5C 271.369,297.624 271.702,296.957 272.5,296.5C 273.429,297.689 273.762,299.022 273.5,300.5C 274.5,300.5 275.5,300.5 276.5,300.5 Z"/></g>
<g><path style="opacity:1" fill="#8b8b8b" d="M 276.5,300.5 C 275.5,300.5 274.5,300.5 273.5,300.5C 273.762,299.022 273.429,297.689 272.5,296.5C 271.702,296.957 271.369,297.624 271.5,298.5C 270.833,298.5 270.167,298.5 269.5,298.5C 269.215,296.712 269.548,295.045 270.5,293.5C 273.59,294.985 275.59,297.318 276.5,300.5 Z"/></g>
<g><path style="opacity:0.329" fill="#858585" d="M 404.5,295.5 C 405.5,295.5 406.5,295.5 407.5,295.5C 407.5,297.167 407.5,298.833 407.5,300.5C 406.5,300.5 405.5,300.5 404.5,300.5C 404.5,298.833 404.5,297.167 404.5,295.5 Z"/></g>
<g><path style="opacity:0.488" fill="#686868" d="M 165.5,300.5 C 167.929,300.884 170.263,301.551 172.5,302.5C 172.5,303.5 172.5,304.5 172.5,305.5C 172.5,304.5 172.5,303.5 172.5,302.5C 170.263,301.551 167.929,300.884 165.5,300.5 Z"/></g>
<g><path style="opacity:0.408" fill="#6b6b6b" d="M 230.5,298.5 C 229.135,300.591 228.468,302.924 228.5,305.5C 227.5,305.5 226.5,305.5 225.5,305.5C 225.011,301.513 226.678,299.18 230.5,298.5 Z"/></g>
<g><path style="opacity:0.063" fill="#8d8d8d" d="M 437.5,293.5 C 438.5,293.5 439.5,293.5 440.5,293.5C 440.5,296.833 440.5,300.167 440.5,303.5C 439.5,303.5 438.5,303.5 437.5,303.5C 437.5,300.167 437.5,296.833 437.5,293.5 Z"/></g>
<g><path style="opacity:0.259" fill="#9d9d9d" d="M 404.5,302.5 C 404.923,304.781 404.256,306.448 402.5,307.5C 402.077,305.219 402.744,303.552 404.5,302.5 Z"/></g>
<g><path style="opacity:0.495" fill="#484848" d="M 238.5,300.5 C 239.5,300.5 240.5,300.5 241.5,300.5C 241.5,305.167 241.5,309.833 241.5,314.5C 240.5,314.5 239.5,314.5 238.5,314.5C 238.5,309.833 238.5,305.167 238.5,300.5 Z"/></g>
<g><path style="opacity:0.137" fill="#9f9f9f" d="M 437.5,307.5 C 437.923,309.781 437.256,311.448 435.5,312.5C 435.077,310.219 435.744,308.552 437.5,307.5 Z"/></g>
<g><path style="opacity:0.518" fill="#616161" d="M 172.5,305.5 C 178.91,308.085 180.91,312.751 178.5,319.5C 177.476,320.853 176.143,321.52 174.5,321.5C 175.312,319.257 175.979,316.924 176.5,314.5C 175.573,311.265 174.24,308.265 172.5,305.5 Z"/></g>
<g><path style="opacity:0.267" fill="#8f8f8f" d="M 225.5,309.5 C 228.5,309.833 230.167,311.5 230.5,314.5C 227.5,314.167 225.833,312.5 225.5,309.5 Z"/></g>
<g><path style="opacity:1" fill="#9c9c9c" d="M 269.5,304.5 C 270.167,304.5 270.833,304.5 271.5,304.5C 271.259,308.437 269.926,311.77 267.5,314.5C 267.959,311.123 268.626,307.789 269.5,304.5 Z"/></g>
<g><path style="opacity:0.512" fill="#787878" d="M 402.5,309.5 C 402.923,311.781 402.256,313.448 400.5,314.5C 400.077,312.219 400.744,310.552 402.5,309.5 Z"/></g>
<g><path style="opacity:0.295" fill="#949494" d="M 161.5,307.5 C 162.794,309.048 163.461,311.048 163.5,313.5C 163.461,315.952 162.794,317.952 161.5,319.5C 161.5,315.5 161.5,311.5 161.5,307.5 Z"/></g>
<g><path style="opacity:0.106" fill="#d0d0d0" d="M 232.5,314.5 C 234.179,314.285 235.179,314.952 235.5,316.5C 233.821,316.715 232.821,316.048 232.5,314.5 Z"/></g>
<g><path style="opacity:0.171" fill="#aaaaaa" d="M 238.5,314.5 C 239.5,314.5 240.5,314.5 241.5,314.5C 241.5,315.5 241.5,316.5 241.5,317.5C 240.508,317.328 239.842,317.662 239.5,318.5C 238.167,318.5 237.5,317.833 237.5,316.5C 238.338,316.158 238.672,315.492 238.5,314.5 Z"/></g>
<g><path style="opacity:0.647" fill="#434343" d="M 230.5,314.5 C 231.167,314.5 231.833,314.5 232.5,314.5C 232.821,316.048 233.821,316.715 235.5,316.5C 236.167,316.5 236.833,316.5 237.5,316.5C 237.5,317.833 238.167,318.5 239.5,318.5C 238.903,319.139 238.07,319.472 237,319.5C 234.941,318.382 232.774,317.715 230.5,317.5C 230.5,316.5 230.5,315.5 230.5,314.5 Z"/></g>
<g><path style="opacity:1" fill="#a6a6a6" d="M 267.5,314.5 C 267.5,316.167 267.5,317.833 267.5,319.5C 268.833,319.5 270.167,319.5 271.5,319.5C 269.721,321.344 267.388,322.01 264.5,321.5C 264.273,318.562 265.273,316.229 267.5,314.5 Z"/></g>
<g><path style="opacity:0.442" fill="#626262" d="M 400.5,314.5 C 400.989,318.487 399.322,320.82 395.5,321.5C 396.449,319.263 397.116,316.929 397.5,314.5C 398.5,314.5 399.5,314.5 400.5,314.5 Z"/></g>
<g><path style="opacity:0.11" fill="#bdbdbd" d="M 435.5,317.5 C 435.5,318.833 434.833,319.5 433.5,319.5C 433.5,318.167 434.167,317.5 435.5,317.5 Z"/></g>
<g><path style="opacity:0.384" fill="#4b4b4b" d="M 435.5,314.5 C 435.5,315.5 435.5,316.5 435.5,317.5C 434.167,317.5 433.5,318.167 433.5,319.5C 433.923,321.781 433.256,323.448 431.5,324.5C 430.861,323.903 430.528,323.07 430.5,322C 431.78,319.64 432.447,317.14 432.5,314.5C 433.5,314.5 434.5,314.5 435.5,314.5 Z"/></g>
<g><path style="opacity:0.498" fill="#4f4f4f" d="M 135.5,319.5 C 134.5,319.5 133.5,319.5 132.5,319.5C 132.5,318.833 132.5,318.167 132.5,317.5C 132.923,315.219 132.256,313.552 130.5,312.5C 130.663,310.143 130.497,307.81 130,305.5C 129.506,307.134 129.34,308.801 129.5,310.5C 127.857,310.48 126.524,311.147 125.5,312.5C 124.516,315.428 124.183,318.428 124.5,321.5C 123.5,321.5 122.5,321.5 121.5,321.5C 121.32,317.318 121.987,313.318 123.5,309.5C 124.5,309.5 125.5,309.5 126.5,309.5C 126.884,307.071 127.551,304.737 128.5,302.5C 130.143,302.52 131.476,301.853 132.5,300.5C 133.007,307.006 134.007,313.339 135.5,319.5 Z"/></g>
<g><path style="opacity:0.046" fill="#a5a5a5" d="M 130.5,312.5 C 132.256,313.552 132.923,315.219 132.5,317.5C 130.744,316.448 130.077,314.781 130.5,312.5 Z"/></g>
<g><path style="opacity:0.18" fill="#b0b0b0" d="M 132.5,319.5 C 133.5,319.5 134.5,319.5 135.5,319.5C 135.5,320.167 135.5,320.833 135.5,321.5C 135.5,321.833 135.5,322.167 135.5,322.5C 134.5,322.5 133.5,322.5 132.5,322.5C 132.5,321.5 132.5,320.5 132.5,319.5 Z"/></g>
<g><path style="opacity:0.006" fill="#fefffe" d="M 169.5,321.5 C 169.5,322.833 168.833,323.5 167.5,323.5C 167.5,322.167 168.167,321.5 169.5,321.5 Z"/></g>
<g><path style="opacity:0.212" fill="#979797" d="M 395.5,321.5 C 395.5,322.833 394.833,323.5 393.5,323.5C 393.5,322.167 394.167,321.5 395.5,321.5 Z"/></g>
<g><path style="opacity:0.074" fill="#a1a1a1" d="M 128.5,323.5 C 129.5,323.5 130.5,323.5 131.5,323.5C 131.5,324.5 131.5,325.5 131.5,326.5C 130.5,326.5 129.5,326.5 128.5,326.5C 128.5,325.5 128.5,324.5 128.5,323.5 Z"/></g>
<g><path style="opacity:0.187" fill="#a1a1a1" d="M 393.5,323.5 C 393.167,326.5 391.5,328.167 388.5,328.5C 389.502,326.989 390.169,325.322 390.5,323.5C 391.5,323.5 392.5,323.5 393.5,323.5 Z"/></g>
<g><path style="opacity:0.525" fill="#393939" d="M 135.5,321.5 C 136.5,321.5 137.5,321.5 138.5,321.5C 138.786,323.277 139.453,324.944 140.5,326.5C 140.457,327.416 140.124,328.083 139.5,328.5C 139.5,327.167 138.833,326.5 137.5,326.5C 136.833,325.167 136.167,323.833 135.5,322.5C 135.5,322.167 135.5,321.833 135.5,321.5 Z"/></g>
<g><path style="opacity:0.294" fill="#747474" d="M 161.5,321.5 C 161.52,323.143 160.853,324.476 159.5,325.5C 159.624,326.107 159.957,326.44 160.5,326.5C 159.817,328.176 158.483,328.843 156.5,328.5C 156.884,326.071 157.551,323.737 158.5,321.5C 159.5,321.5 160.5,321.5 161.5,321.5 Z"/></g>
<g><path style="opacity:0.227" fill="#a2a2a2" d="M 165.5,323.5 C 165.5,324.5 165.5,325.5 165.5,326.5C 164.5,326.5 163.5,326.5 162.5,326.5C 162.5,325.5 162.5,324.5 162.5,323.5C 163.5,323.5 164.5,323.5 165.5,323.5 Z"/></g>
<g><path style="opacity:0.788" fill="#3a3a3a" d="M 169.5,321.5 C 170.5,321.5 171.5,321.5 172.5,321.5C 172.5,322.5 172.5,323.5 172.5,324.5C 170.263,325.449 167.929,326.116 165.5,326.5C 165.5,325.5 165.5,324.5 165.5,323.5C 166.167,323.5 166.833,323.5 167.5,323.5C 168.833,323.5 169.5,322.833 169.5,321.5 Z"/></g>
<g><path style="opacity:0.157" fill="#a4a4a4" d="M 133.5,326.5 C 134.833,326.5 136.167,326.5 137.5,326.5C 138.833,326.5 139.5,327.167 139.5,328.5C 136.918,328.975 134.918,328.308 133.5,326.5 Z"/></g>
<g><path style="opacity:0.316" fill="#787878" d="M 431.5,326.5 C 431.5,327.5 431.5,328.5 431.5,329.5C 430.5,329.5 429.5,329.5 428.5,329.5C 428.5,328.5 428.5,327.5 428.5,326.5C 429.5,326.5 430.5,326.5 431.5,326.5 Z"/></g>
<g><path style="opacity:0.275" fill="#8d8d8d" d="M 428.5,331.5 C 428.5,332.833 427.833,333.5 426.5,333.5C 426.5,332.167 427.167,331.5 428.5,331.5 Z"/></g>
<g><path style="opacity:0.167" fill="#aaaaaa" d="M 381.5,333.5 C 381.5,334.833 380.833,335.5 379.5,335.5C 379.5,334.167 380.167,333.5 381.5,333.5 Z"/></g>
<g><path style="opacity:0.141" fill="#a1a1a1" d="M 372.5,337.5 C 372.5,338.5 372.5,339.5 372.5,340.5C 370.833,340.5 369.167,340.5 367.5,340.5C 368.048,337.916 369.715,336.916 372.5,337.5 Z"/></g>
<g><path style="opacity:0.757" fill="#383838" d="M 381.5,333.5 C 382.5,333.5 383.5,333.5 384.5,333.5C 383.358,335.433 381.692,336.933 379.5,338C 376.969,338.448 374.636,339.281 372.5,340.5C 372.5,339.5 372.5,338.5 372.5,337.5C 374.591,336.135 376.924,335.468 379.5,335.5C 380.833,335.5 381.5,334.833 381.5,333.5 Z"/></g>
<g><path style="opacity:0.329" fill="#9a9a9a" d="M 426.5,336.5 C 425.918,337.931 425.085,339.264 424,340.5C 423.329,341.252 422.496,341.586 421.5,341.5C 421.999,338.736 423.665,337.069 426.5,336.5 Z"/></g>
<g><path style="opacity:0.243" fill="#b1b1b1" d="M 363.5,340.5 C 362.448,342.256 360.781,342.923 358.5,342.5C 359.552,340.744 361.219,340.077 363.5,340.5 Z"/></g>
<g><path style="opacity:0.137" fill="#a9a9a9" d="M 483.5,333.5 C 483.5,337.5 483.5,341.5 483.5,345.5C 482.5,345.5 481.5,345.5 480.5,345.5C 480.5,341.5 480.5,337.5 480.5,333.5C 481.5,333.5 482.5,333.5 483.5,333.5 Z"/></g>
<g><path style="opacity:0.31" fill="#7c7c7c" d="M 354.5,342.5 C 354.5,343.5 354.5,344.5 354.5,345.5C 351.061,345.747 347.728,345.414 344.5,344.5C 347.337,342.598 350.671,341.931 354.5,342.5 Z"/></g>
<g><path style="opacity:0.057" fill="#d0d0d0" d="M 419.5,345.5 C 419.715,347.179 419.048,348.179 417.5,348.5C 417.285,346.821 417.952,345.821 419.5,345.5 Z"/></g>
<g><path style="opacity:0.267" fill="#909090" d="M 405.5,357.5 C 405.5,358.833 404.833,359.5 403.5,359.5C 403.5,358.167 404.167,357.5 405.5,357.5 Z"/></g>
<g><path style="opacity:0.855" fill="#404040" d="M 401.5,359.5 C 401.5,360.5 401.5,361.5 401.5,362.5C 399.263,363.449 396.929,364.116 394.5,364.5C 394.5,365.5 394.5,366.5 394.5,367.5C 393.5,367.5 392.5,367.5 391.5,367.5C 392.167,365.5 392.833,363.5 393.5,361.5C 396.308,361.307 398.975,360.64 401.5,359.5 Z"/></g>
<g><path style="opacity:0.024" fill="#bebebe" d="M 401.5,359.5 C 402.167,359.5 402.833,359.5 403.5,359.5C 403.715,361.179 403.048,362.179 401.5,362.5C 401.5,361.5 401.5,360.5 401.5,359.5 Z"/></g>
<g><path style="opacity:0.235" fill="#6d6d6d" d="M 389.5,367.5 C 388.448,369.256 386.781,369.923 384.5,369.5C 384.5,368.5 384.5,367.5 384.5,366.5C 386.415,366.216 388.081,366.549 389.5,367.5 Z"/></g>
<g><path style="opacity:0.029" fill="#b9b9b9" d="M 384.5,369.5 C 383.448,371.256 381.781,371.923 379.5,371.5C 380.552,369.744 382.219,369.077 384.5,369.5 Z"/></g>
<g><path style="opacity:0.039" fill="#cccccc" d="M 373.5,371.5 C 375.167,371.5 376.833,371.5 378.5,371.5C 377.952,374.084 376.285,375.084 373.5,374.5C 373.5,373.5 373.5,372.5 373.5,371.5 Z"/></g>
<g><path style="opacity:0.063" fill="#626262" d="M 373.5,371.5 C 373.5,372.5 373.5,373.5 373.5,374.5C 372.5,374.5 371.5,374.5 370.5,374.5C 370.5,373.5 370.5,372.5 370.5,371.5C 371.5,371.5 372.5,371.5 373.5,371.5 Z"/></g>
<g><path style="opacity:0.076" fill="#b3b3b3" d="M 368.5,374.5 C 367.448,376.256 365.781,376.923 363.5,376.5C 364.552,374.744 366.219,374.077 368.5,374.5 Z"/></g>
<g><path style="opacity:0.787" fill="#2c2c2c" d="M 368.5,374.5 C 366.219,374.077 364.552,374.744 363.5,376.5C 361.5,376.5 359.5,376.5 357.5,376.5C 352.381,375.897 347.715,376.564 343.5,378.5C 341.833,378.5 340.167,378.5 338.5,378.5C 337.833,378.5 337.167,378.5 336.5,378.5C 336.5,377.5 336.5,376.5 336.5,375.5C 344.893,375.642 353.227,374.975 361.5,373.5C 364.025,373.503 366.359,373.837 368.5,374.5 Z"/></g>
<g><path style="opacity:0.192" fill="#979797" d="M 357.5,376.5 C 353.285,378.436 348.619,379.103 343.5,378.5C 347.715,376.564 352.381,375.897 357.5,376.5 Z"/></g>
<g><path style="opacity:0.047" fill="#c4c4c4" d="M 336.5,378.5 C 337.167,378.5 337.833,378.5 338.5,378.5C 338.715,380.179 338.048,381.179 336.5,381.5C 336.5,380.5 336.5,379.5 336.5,378.5 Z"/></g>
<g><path style="opacity:0.05" fill="#d2d2d2" d="M 56.5,385.5 C 57.5,385.5 58.5,385.5 59.5,385.5C 59.5,386.5 59.5,387.5 59.5,388.5C 58.5,388.5 57.5,388.5 56.5,388.5C 56.5,387.5 56.5,386.5 56.5,385.5 Z"/></g>
<g><path style="opacity:0.575" fill="#555555" d="M 336.5,385.5 C 336.813,388.247 336.48,390.914 335.5,393.5C 334.476,394.853 333.143,395.52 331.5,395.5C 332.876,392.342 333.542,389.009 333.5,385.5C 334.5,385.5 335.5,385.5 336.5,385.5 Z"/></g>
<g><path style="opacity:0.172" fill="#a2a2a2" d="M 59.5,390.5 C 61.929,391.265 63.2623,392.931 63.5,395.5C 61.071,394.735 59.7377,393.069 59.5,390.5 Z"/></g>
<g><path style="opacity:0.419" fill="#515151" d="M 66.5,397.5 C 87.7304,399.408 109.064,400.074 130.5,399.5C 131.01,402.388 130.344,404.721 128.5,406.5C 128.5,405.167 128.5,403.833 128.5,402.5C 107.73,403.071 87.063,402.404 66.5,400.5C 66.5,399.5 66.5,398.5 66.5,397.5 Z"/></g>
<g><path style="opacity:0.417" fill="#4e4e4e" d="M 218.5,409.5 C 217.5,409.5 216.5,409.5 215.5,409.5C 215.5,407.167 215.5,404.833 215.5,402.5C 198.466,401.848 181.8,402.515 165.5,404.5C 164.833,404.5 164.167,404.5 163.5,404.5C 163.48,402.857 164.147,401.524 165.5,400.5C 182.487,399.501 199.487,399.167 216.5,399.5C 217.876,402.658 218.542,405.991 218.5,409.5 Z"/></g>
<g><path style="opacity:0.415" fill="#4d4d4d" d="M 329.5,397.5 C 329.715,399.179 329.048,400.179 327.5,400.5C 325.219,400.077 323.552,400.744 322.5,402.5C 296.145,401.842 270.145,402.509 244.5,404.5C 243.5,404.5 242.5,404.5 241.5,404.5C 241.48,402.857 242.147,401.524 243.5,400.5C 272.278,400.117 300.945,399.117 329.5,397.5 Z"/></g>
<g><path style="opacity:0.024" fill="#aeaeae" d="M 327.5,400.5 C 326.448,402.256 324.781,402.923 322.5,402.5C 323.552,400.744 325.219,400.077 327.5,400.5 Z"/></g>
<g><path style="opacity:0.031" fill="#e6e6e6" d="M 163.5,404.5 C 164.167,404.5 164.833,404.5 165.5,404.5C 165.715,406.179 165.048,407.179 163.5,407.5C 163.5,406.5 163.5,405.5 163.5,404.5 Z"/></g>
<g><path style="opacity:0.12" fill="#7a7a7a" d="M 128.5,406.5 C 128.072,409.564 127.406,412.564 126.5,415.5C 125.5,415.5 124.5,415.5 123.5,415.5C 124.406,412.564 125.072,409.564 125.5,406.5C 126.5,406.5 127.5,406.5 128.5,406.5 Z"/></g>
<g><path style="opacity:0.184" fill="#aaaaaa" d="M 163.5,409.5 C 163.5,410.833 162.833,411.5 161.5,411.5C 161.5,410.167 162.167,409.5 163.5,409.5 Z"/></g>
<g><path style="opacity:0.071" fill="#c5c5c5" d="M 215.5,409.5 C 216.5,409.5 217.5,409.5 218.5,409.5C 218.5,411.167 218.5,412.833 218.5,414.5C 217.5,414.5 216.5,414.5 215.5,414.5C 215.5,412.833 215.5,411.167 215.5,409.5 Z"/></g>
<g><path style="opacity:0.178" fill="#b1b1b1" d="M 244.5,408.5 C 246.256,409.552 246.923,411.219 246.5,413.5C 245.833,413.5 245.167,413.5 244.5,413.5C 244.5,411.833 244.5,410.167 244.5,408.5 Z"/></g>
<g><path style="opacity:0.1" fill="#bebebe" d="M 260.5,413.5 C 261.833,413.5 262.5,414.167 262.5,415.5C 262.5,414.167 261.833,413.5 260.5,413.5 Z"/></g>
<g><path style="opacity:0.792" fill="#3c3c3c" d="M 244.5,413.5 C 245.167,413.5 245.833,413.5 246.5,413.5C 251.167,413.5 255.833,413.5 260.5,413.5C 260.5,414.833 261.167,415.5 262.5,415.5C 263.5,415.5 264.5,415.5 265.5,415.5C 265.831,417.322 266.498,418.989 267.5,420.5C 265.394,420.321 263.728,419.321 262.5,417.5C 256.537,416.504 250.537,416.171 244.5,416.5C 244.5,415.5 244.5,414.5 244.5,413.5 Z"/></g>
<g><path style="opacity:0.343" fill="#979797" d="M 123.5,415.5 C 123.923,417.781 123.256,419.448 121.5,420.5C 121.077,418.219 121.744,416.552 123.5,415.5 Z"/></g>
<g><path style="opacity:0.608" fill="#707070" d="M 161.5,413.5 C 160.982,416.887 160.149,420.221 159,423.5C 158.583,424.756 157.75,425.423 156.5,425.5C 156.808,421.427 157.475,417.427 158.5,413.5C 159.5,413.5 160.5,413.5 161.5,413.5 Z"/></g>
<g><path style="opacity:0.4" fill="#5c5c5c" d="M 218.5,414.5 C 220.388,416.988 221.055,419.988 220.5,423.5C 219.833,423.5 219.167,423.5 218.5,423.5C 218.5,420.5 218.5,417.5 218.5,414.5 Z"/></g>
<g><path style="opacity:0.277" fill="#808080" d="M 121.5,422.5 C 121.715,424.179 121.048,425.179 119.5,425.5C 119.285,423.821 119.952,422.821 121.5,422.5 Z"/></g>
<g><path style="opacity:0.173" fill="#b3b3b3" d="M 218.5,423.5 C 219.167,423.5 219.833,423.5 220.5,423.5C 220.5,425.833 220.5,428.167 220.5,430.5C 218.656,428.721 217.99,426.388 218.5,423.5 Z"/></g>
<g><path style="opacity:0.401" fill="#888888" d="M 267.5,420.5 C 268.809,422.571 269.475,425.071 269.5,428C 269.475,430.929 268.809,433.429 267.5,435.5C 267.5,430.5 267.5,425.5 267.5,420.5 Z"/></g>
<g><path style="opacity:0.158" fill="#989898" d="M 119.5,425.5 C 119.5,427.167 119.5,428.833 119.5,430.5C 118.5,430.5 117.5,430.5 116.5,430.5C 116.5,428.833 116.5,427.167 116.5,425.5C 117.5,425.5 118.5,425.5 119.5,425.5 Z"/></g>
<g><path style="opacity:0.358" fill="#666666" d="M 158.5,427.5 C 162.487,427.011 164.82,428.678 165.5,432.5C 164.82,428.678 162.487,427.011 158.5,427.5 Z"/></g>
<g><path style="opacity:0.024" fill="#d3d3d3" d="M 168.5,432.5 C 169.833,432.5 170.5,433.167 170.5,434.5C 170.5,433.167 169.833,432.5 168.5,432.5 Z"/></g>
<g><path style="opacity:0.424" fill="#878787" d="M 116.5,432.5 C 116.923,434.781 116.256,436.448 114.5,437.5C 114.077,435.219 114.744,433.552 116.5,432.5 Z"/></g>
<g><path style="opacity:0.178" fill="#909090" d="M 220.5,437.5 C 222.256,438.552 222.923,440.219 222.5,442.5C 220.744,441.448 220.077,439.781 220.5,437.5 Z"/></g>
<g><path style="opacity:0.112" fill="#b7b7b7" d="M 267.5,437.5 C 267.167,440.5 265.5,442.167 262.5,442.5C 263.833,440.5 265.5,438.833 267.5,437.5 Z"/></g>
<g><path style="opacity:0.067" fill="#cfcfcf" d="M 262.5,442.5 C 262.5,443.833 261.833,444.5 260.5,444.5C 260.5,443.167 261.167,442.5 262.5,442.5 Z"/></g>
<g><path style="opacity:0.235" fill="#7e7f7e" d="M 222.5,444.5 C 223.5,444.5 224.5,444.5 225.5,444.5C 225.5,445.5 225.5,446.5 225.5,447.5C 224.5,447.5 223.5,447.5 222.5,447.5C 222.5,446.5 222.5,445.5 222.5,444.5 Z"/></g>
<g><path style="opacity:0.459" fill="#5c5c5c" d="M 258.5,444.5 C 258.5,445.5 258.5,446.5 258.5,447.5C 255.167,448.167 251.833,448.833 248.5,449.5C 248.5,448.5 248.5,447.5 248.5,446.5C 251.833,445.833 255.167,445.167 258.5,444.5 Z"/></g>
<g><path style="opacity:0.553" fill="#6e6e6e" d="M 114.5,439.5 C 114.062,446.996 114.729,454.33 116.5,461.5C 115.265,461.279 114.265,460.612 113.5,459.5C 113.167,456.167 112.833,452.833 112.5,449.5C 112.514,445.761 113.18,442.428 114.5,439.5 Z"/></g>
<g><path style="opacity:0.172" fill="#9f9f9f" d="M 172.5,441.5 C 173.5,441.5 174.5,441.5 175.5,441.5C 175.5,445.167 175.5,448.833 175.5,452.5C 173.678,452.831 172.011,453.498 170.5,454.5C 172.062,450.348 172.728,446.015 172.5,441.5 Z"/></g>
<g><path style="opacity:0.722" fill="#373737" d="M 227.5,449.5 C 232.167,449.5 236.833,449.5 241.5,449.5C 241.5,450.5 241.5,451.5 241.5,452.5C 236.833,452.5 232.167,452.5 227.5,452.5C 227.5,451.5 227.5,450.5 227.5,449.5 Z"/></g>
<g><path style="opacity:0.191" fill="#848484" d="M 241.5,449.5 C 243.833,449.5 246.167,449.5 248.5,449.5C 248.5,450.5 248.5,451.5 248.5,452.5C 246.167,452.5 243.833,452.5 241.5,452.5C 241.5,451.5 241.5,450.5 241.5,449.5 Z"/></g>
<g><path style="opacity:0.188" fill="#9b9b9b" d="M 168.5,456.5 C 168.5,457.5 168.5,458.5 168.5,459.5C 167.5,459.5 166.5,459.5 165.5,459.5C 165.5,458.5 165.5,457.5 165.5,456.5C 166.5,456.5 167.5,456.5 168.5,456.5 Z"/></g>
<g><path style="opacity:0.008" fill="#888888" d="M 165.5,459.5 C 164.817,461.176 163.483,461.843 161.5,461.5C 162.183,459.824 163.517,459.157 165.5,459.5 Z"/></g>
<g><path style="opacity:0.094" fill="#969696" d="M 116.5,461.5 C 118.179,461.285 119.179,461.952 119.5,463.5C 117.821,463.715 116.821,463.048 116.5,461.5 Z"/></g>
<g><path style="opacity:0.576" fill="#6a6a6a" d="M 159.5,461.5 C 157.365,463.369 154.698,464.036 151.5,463.5C 153.635,461.631 156.302,460.964 159.5,461.5 Z"/></g>
<g><path style="opacity:0.286" fill="#8e8e8e" d="M 121.5,463.5 C 125.5,463.5 129.5,463.5 133.5,463.5C 133.5,464.5 133.5,465.5 133.5,466.5C 129.5,466.5 125.5,466.5 121.5,466.5C 121.5,465.5 121.5,464.5 121.5,463.5 Z"/></g>
<g><path style="opacity:0.051" fill="#c5c5c5" d="M 133.5,463.5 C 138.833,463.5 144.167,463.5 149.5,463.5C 149.5,464.5 149.5,465.5 149.5,466.5C 144.167,466.5 138.833,466.5 133.5,466.5C 133.5,465.5 133.5,464.5 133.5,463.5 Z"/></g>
</svg>
